<?xml version="1.0" encoding="utf-8" standalone="no"?>
<!DOCTYPE svg PUBLIC "-//W3C//DTD SVG 1.1//EN"
  "http://www.w3.org/Graphics/SVG/1.1/DTD/svg11.dtd">
<svg xmlns:xlink="http://www.w3.org/1999/xlink" width="720pt" height="288pt" viewBox="0 0 720 288" xmlns="http://www.w3.org/2000/svg" version="1.1">
 <metadata>
  <rdf:RDF xmlns:dc="http://purl.org/dc/elements/1.1/" xmlns:cc="http://creativecommons.org/ns#" xmlns:rdf="http://www.w3.org/1999/02/22-rdf-syntax-ns#">
   <cc:Work>
    <dc:type rdf:resource="http://purl.org/dc/dcmitype/StillImage"/>
    <dc:date>2024-08-16T15:18:32.363461</dc:date>
    <dc:format>image/svg+xml</dc:format>
    <dc:creator>
     <cc:Agent>
      <dc:title>Matplotlib v3.9.2, https://matplotlib.org/</dc:title>
     </cc:Agent>
    </dc:creator>
   </cc:Work>
  </rdf:RDF>
 </metadata>
 <defs>
  <style type="text/css">*{stroke-linejoin: round; stroke-linecap: butt}</style>
 </defs>
 <g id="figure_1">
  <g id="patch_1">
   <path d="M 0 288 
L 720 288 
L 720 0 
L 0 0 
L 0 288 
z
" style="fill: none"/>
  </g>
  <g id="axes_1">
   <g id="patch_2">
    <path d="M 90 256.32 
L 648 256.32 
L 648 34.56 
L 90 34.56 
L 90 256.32 
z
" style="fill: none"/>
   </g>
   <g id="matplotlib.axis_1">
    <g id="xtick_1">
     <g id="line2d_1">
      <path d="M 115.363636 256.32 
L 115.363636 34.56 
" clip-path="url(#pb37ab117b0)" style="fill: none; stroke: #b0b0b0; stroke-width: 0.8; stroke-linecap: square"/>
     </g>
     <g id="line2d_2">
      <defs>
       <path id="m2d1a9aa353" d="M 0 0 
L 0 3.5 
" style="stroke: #000000; stroke-width: 0.8"/>
      </defs>
      <g>
       <use xlink:href="#m2d1a9aa353" x="115.363636" y="256.32" style="stroke: #000000; stroke-width: 0.8"/>
      </g>
     </g>
     <g id="text_1">
      <!-- 0 -->
      <g transform="translate(112.182386 270.918437) scale(0.1 -0.1)">
       <defs>
        <path id="DejaVuSans-30" d="M 2034 4250 
Q 1547 4250 1301 3770 
Q 1056 3291 1056 2328 
Q 1056 1369 1301 889 
Q 1547 409 2034 409 
Q 2525 409 2770 889 
Q 3016 1369 3016 2328 
Q 3016 3291 2770 3770 
Q 2525 4250 2034 4250 
z
M 2034 4750 
Q 2819 4750 3233 4129 
Q 3647 3509 3647 2328 
Q 3647 1150 3233 529 
Q 2819 -91 2034 -91 
Q 1250 -91 836 529 
Q 422 1150 422 2328 
Q 422 3509 836 4129 
Q 1250 4750 2034 4750 
z
" transform="scale(0.015625)"/>
       </defs>
       <use xlink:href="#DejaVuSans-30"/>
      </g>
     </g>
    </g>
    <g id="xtick_2">
     <g id="line2d_3">
      <path d="M 214.53719 256.32 
L 214.53719 34.56 
" clip-path="url(#pb37ab117b0)" style="fill: none; stroke: #b0b0b0; stroke-width: 0.8; stroke-linecap: square"/>
     </g>
     <g id="line2d_4">
      <g>
       <use xlink:href="#m2d1a9aa353" x="214.53719" y="256.32" style="stroke: #000000; stroke-width: 0.8"/>
      </g>
     </g>
     <g id="text_2">
      <!-- 200 -->
      <g transform="translate(204.99344 270.918437) scale(0.1 -0.1)">
       <defs>
        <path id="DejaVuSans-32" d="M 1228 531 
L 3431 531 
L 3431 0 
L 469 0 
L 469 531 
Q 828 903 1448 1529 
Q 2069 2156 2228 2338 
Q 2531 2678 2651 2914 
Q 2772 3150 2772 3378 
Q 2772 3750 2511 3984 
Q 2250 4219 1831 4219 
Q 1534 4219 1204 4116 
Q 875 4013 500 3803 
L 500 4441 
Q 881 4594 1212 4672 
Q 1544 4750 1819 4750 
Q 2544 4750 2975 4387 
Q 3406 4025 3406 3419 
Q 3406 3131 3298 2873 
Q 3191 2616 2906 2266 
Q 2828 2175 2409 1742 
Q 1991 1309 1228 531 
z
" transform="scale(0.015625)"/>
       </defs>
       <use xlink:href="#DejaVuSans-32"/>
       <use xlink:href="#DejaVuSans-30" x="63.623047"/>
       <use xlink:href="#DejaVuSans-30" x="127.246094"/>
      </g>
     </g>
    </g>
    <g id="xtick_3">
     <g id="line2d_5">
      <path d="M 313.710744 256.32 
L 313.710744 34.56 
" clip-path="url(#pb37ab117b0)" style="fill: none; stroke: #b0b0b0; stroke-width: 0.8; stroke-linecap: square"/>
     </g>
     <g id="line2d_6">
      <g>
       <use xlink:href="#m2d1a9aa353" x="313.710744" y="256.32" style="stroke: #000000; stroke-width: 0.8"/>
      </g>
     </g>
     <g id="text_3">
      <!-- 400 -->
      <g transform="translate(304.166994 270.918437) scale(0.1 -0.1)">
       <defs>
        <path id="DejaVuSans-34" d="M 2419 4116 
L 825 1625 
L 2419 1625 
L 2419 4116 
z
M 2253 4666 
L 3047 4666 
L 3047 1625 
L 3713 1625 
L 3713 1100 
L 3047 1100 
L 3047 0 
L 2419 0 
L 2419 1100 
L 313 1100 
L 313 1709 
L 2253 4666 
z
" transform="scale(0.015625)"/>
       </defs>
       <use xlink:href="#DejaVuSans-34"/>
       <use xlink:href="#DejaVuSans-30" x="63.623047"/>
       <use xlink:href="#DejaVuSans-30" x="127.246094"/>
      </g>
     </g>
    </g>
    <g id="xtick_4">
     <g id="line2d_7">
      <path d="M 412.884298 256.32 
L 412.884298 34.56 
" clip-path="url(#pb37ab117b0)" style="fill: none; stroke: #b0b0b0; stroke-width: 0.8; stroke-linecap: square"/>
     </g>
     <g id="line2d_8">
      <g>
       <use xlink:href="#m2d1a9aa353" x="412.884298" y="256.32" style="stroke: #000000; stroke-width: 0.8"/>
      </g>
     </g>
     <g id="text_4">
      <!-- 600 -->
      <g transform="translate(403.340548 270.918437) scale(0.1 -0.1)">
       <defs>
        <path id="DejaVuSans-36" d="M 2113 2584 
Q 1688 2584 1439 2293 
Q 1191 2003 1191 1497 
Q 1191 994 1439 701 
Q 1688 409 2113 409 
Q 2538 409 2786 701 
Q 3034 994 3034 1497 
Q 3034 2003 2786 2293 
Q 2538 2584 2113 2584 
z
M 3366 4563 
L 3366 3988 
Q 3128 4100 2886 4159 
Q 2644 4219 2406 4219 
Q 1781 4219 1451 3797 
Q 1122 3375 1075 2522 
Q 1259 2794 1537 2939 
Q 1816 3084 2150 3084 
Q 2853 3084 3261 2657 
Q 3669 2231 3669 1497 
Q 3669 778 3244 343 
Q 2819 -91 2113 -91 
Q 1303 -91 875 529 
Q 447 1150 447 2328 
Q 447 3434 972 4092 
Q 1497 4750 2381 4750 
Q 2619 4750 2861 4703 
Q 3103 4656 3366 4563 
z
" transform="scale(0.015625)"/>
       </defs>
       <use xlink:href="#DejaVuSans-36"/>
       <use xlink:href="#DejaVuSans-30" x="63.623047"/>
       <use xlink:href="#DejaVuSans-30" x="127.246094"/>
      </g>
     </g>
    </g>
    <g id="xtick_5">
     <g id="line2d_9">
      <path d="M 512.057851 256.32 
L 512.057851 34.56 
" clip-path="url(#pb37ab117b0)" style="fill: none; stroke: #b0b0b0; stroke-width: 0.8; stroke-linecap: square"/>
     </g>
     <g id="line2d_10">
      <g>
       <use xlink:href="#m2d1a9aa353" x="512.057851" y="256.32" style="stroke: #000000; stroke-width: 0.8"/>
      </g>
     </g>
     <g id="text_5">
      <!-- 800 -->
      <g transform="translate(502.514101 270.918437) scale(0.1 -0.1)">
       <defs>
        <path id="DejaVuSans-38" d="M 2034 2216 
Q 1584 2216 1326 1975 
Q 1069 1734 1069 1313 
Q 1069 891 1326 650 
Q 1584 409 2034 409 
Q 2484 409 2743 651 
Q 3003 894 3003 1313 
Q 3003 1734 2745 1975 
Q 2488 2216 2034 2216 
z
M 1403 2484 
Q 997 2584 770 2862 
Q 544 3141 544 3541 
Q 544 4100 942 4425 
Q 1341 4750 2034 4750 
Q 2731 4750 3128 4425 
Q 3525 4100 3525 3541 
Q 3525 3141 3298 2862 
Q 3072 2584 2669 2484 
Q 3125 2378 3379 2068 
Q 3634 1759 3634 1313 
Q 3634 634 3220 271 
Q 2806 -91 2034 -91 
Q 1263 -91 848 271 
Q 434 634 434 1313 
Q 434 1759 690 2068 
Q 947 2378 1403 2484 
z
M 1172 3481 
Q 1172 3119 1398 2916 
Q 1625 2713 2034 2713 
Q 2441 2713 2670 2916 
Q 2900 3119 2900 3481 
Q 2900 3844 2670 4047 
Q 2441 4250 2034 4250 
Q 1625 4250 1398 4047 
Q 1172 3844 1172 3481 
z
" transform="scale(0.015625)"/>
       </defs>
       <use xlink:href="#DejaVuSans-38"/>
       <use xlink:href="#DejaVuSans-30" x="63.623047"/>
       <use xlink:href="#DejaVuSans-30" x="127.246094"/>
      </g>
     </g>
    </g>
    <g id="xtick_6">
     <g id="line2d_11">
      <path d="M 611.231405 256.32 
L 611.231405 34.56 
" clip-path="url(#pb37ab117b0)" style="fill: none; stroke: #b0b0b0; stroke-width: 0.8; stroke-linecap: square"/>
     </g>
     <g id="line2d_12">
      <g>
       <use xlink:href="#m2d1a9aa353" x="611.231405" y="256.32" style="stroke: #000000; stroke-width: 0.8"/>
      </g>
     </g>
     <g id="text_6">
      <!-- 1000 -->
      <g transform="translate(598.506405 270.918437) scale(0.1 -0.1)">
       <defs>
        <path id="DejaVuSans-31" d="M 794 531 
L 1825 531 
L 1825 4091 
L 703 3866 
L 703 4441 
L 1819 4666 
L 2450 4666 
L 2450 531 
L 3481 531 
L 3481 0 
L 794 0 
L 794 531 
z
" transform="scale(0.015625)"/>
       </defs>
       <use xlink:href="#DejaVuSans-31"/>
       <use xlink:href="#DejaVuSans-30" x="63.623047"/>
       <use xlink:href="#DejaVuSans-30" x="127.246094"/>
       <use xlink:href="#DejaVuSans-30" x="190.869141"/>
      </g>
     </g>
    </g>
    <g id="text_7">
     <!-- X (pixels) -->
     <g transform="translate(345.647656 284.596563) scale(0.1 -0.1)">
      <defs>
       <path id="DejaVuSans-58" d="M 403 4666 
L 1081 4666 
L 2241 2931 
L 3406 4666 
L 4084 4666 
L 2584 2425 
L 4184 0 
L 3506 0 
L 2194 1984 
L 872 0 
L 191 0 
L 1856 2491 
L 403 4666 
z
" transform="scale(0.015625)"/>
       <path id="DejaVuSans-20" transform="scale(0.015625)"/>
       <path id="DejaVuSans-28" d="M 1984 4856 
Q 1566 4138 1362 3434 
Q 1159 2731 1159 2009 
Q 1159 1288 1364 580 
Q 1569 -128 1984 -844 
L 1484 -844 
Q 1016 -109 783 600 
Q 550 1309 550 2009 
Q 550 2706 781 3412 
Q 1013 4119 1484 4856 
L 1984 4856 
z
" transform="scale(0.015625)"/>
       <path id="DejaVuSans-70" d="M 1159 525 
L 1159 -1331 
L 581 -1331 
L 581 3500 
L 1159 3500 
L 1159 2969 
Q 1341 3281 1617 3432 
Q 1894 3584 2278 3584 
Q 2916 3584 3314 3078 
Q 3713 2572 3713 1747 
Q 3713 922 3314 415 
Q 2916 -91 2278 -91 
Q 1894 -91 1617 61 
Q 1341 213 1159 525 
z
M 3116 1747 
Q 3116 2381 2855 2742 
Q 2594 3103 2138 3103 
Q 1681 3103 1420 2742 
Q 1159 2381 1159 1747 
Q 1159 1113 1420 752 
Q 1681 391 2138 391 
Q 2594 391 2855 752 
Q 3116 1113 3116 1747 
z
" transform="scale(0.015625)"/>
       <path id="DejaVuSans-69" d="M 603 3500 
L 1178 3500 
L 1178 0 
L 603 0 
L 603 3500 
z
M 603 4863 
L 1178 4863 
L 1178 4134 
L 603 4134 
L 603 4863 
z
" transform="scale(0.015625)"/>
       <path id="DejaVuSans-78" d="M 3513 3500 
L 2247 1797 
L 3578 0 
L 2900 0 
L 1881 1375 
L 863 0 
L 184 0 
L 1544 1831 
L 300 3500 
L 978 3500 
L 1906 2253 
L 2834 3500 
L 3513 3500 
z
" transform="scale(0.015625)"/>
       <path id="DejaVuSans-65" d="M 3597 1894 
L 3597 1613 
L 953 1613 
Q 991 1019 1311 708 
Q 1631 397 2203 397 
Q 2534 397 2845 478 
Q 3156 559 3463 722 
L 3463 178 
Q 3153 47 2828 -22 
Q 2503 -91 2169 -91 
Q 1331 -91 842 396 
Q 353 884 353 1716 
Q 353 2575 817 3079 
Q 1281 3584 2069 3584 
Q 2775 3584 3186 3129 
Q 3597 2675 3597 1894 
z
M 3022 2063 
Q 3016 2534 2758 2815 
Q 2500 3097 2075 3097 
Q 1594 3097 1305 2825 
Q 1016 2553 972 2059 
L 3022 2063 
z
" transform="scale(0.015625)"/>
       <path id="DejaVuSans-6c" d="M 603 4863 
L 1178 4863 
L 1178 0 
L 603 0 
L 603 4863 
z
" transform="scale(0.015625)"/>
       <path id="DejaVuSans-73" d="M 2834 3397 
L 2834 2853 
Q 2591 2978 2328 3040 
Q 2066 3103 1784 3103 
Q 1356 3103 1142 2972 
Q 928 2841 928 2578 
Q 928 2378 1081 2264 
Q 1234 2150 1697 2047 
L 1894 2003 
Q 2506 1872 2764 1633 
Q 3022 1394 3022 966 
Q 3022 478 2636 193 
Q 2250 -91 1575 -91 
Q 1294 -91 989 -36 
Q 684 19 347 128 
L 347 722 
Q 666 556 975 473 
Q 1284 391 1588 391 
Q 1994 391 2212 530 
Q 2431 669 2431 922 
Q 2431 1156 2273 1281 
Q 2116 1406 1581 1522 
L 1381 1569 
Q 847 1681 609 1914 
Q 372 2147 372 2553 
Q 372 3047 722 3315 
Q 1072 3584 1716 3584 
Q 2034 3584 2315 3537 
Q 2597 3491 2834 3397 
z
" transform="scale(0.015625)"/>
       <path id="DejaVuSans-29" d="M 513 4856 
L 1013 4856 
Q 1481 4119 1714 3412 
Q 1947 2706 1947 2009 
Q 1947 1309 1714 600 
Q 1481 -109 1013 -844 
L 513 -844 
Q 928 -128 1133 580 
Q 1338 1288 1338 2009 
Q 1338 2731 1133 3434 
Q 928 4138 513 4856 
z
" transform="scale(0.015625)"/>
      </defs>
      <use xlink:href="#DejaVuSans-58"/>
      <use xlink:href="#DejaVuSans-20" x="68.505859"/>
      <use xlink:href="#DejaVuSans-28" x="100.292969"/>
      <use xlink:href="#DejaVuSans-70" x="139.306641"/>
      <use xlink:href="#DejaVuSans-69" x="202.783203"/>
      <use xlink:href="#DejaVuSans-78" x="230.566406"/>
      <use xlink:href="#DejaVuSans-65" x="286.621094"/>
      <use xlink:href="#DejaVuSans-6c" x="348.144531"/>
      <use xlink:href="#DejaVuSans-73" x="375.927734"/>
      <use xlink:href="#DejaVuSans-29" x="428.027344"/>
     </g>
    </g>
   </g>
   <g id="matplotlib.axis_2">
    <g id="ytick_1">
     <g id="line2d_13">
      <path d="M 90 256.220831 
L 648 256.220831 
" clip-path="url(#pb37ab117b0)" style="fill: none; stroke: #b0b0b0; stroke-width: 0.8; stroke-linecap: square"/>
     </g>
     <g id="line2d_14">
      <defs>
       <path id="mb1bf578a59" d="M 0 0 
L -3.5 0 
" style="stroke: #000000; stroke-width: 0.8"/>
      </defs>
      <g>
       <use xlink:href="#mb1bf578a59" x="90" y="256.220831" style="stroke: #000000; stroke-width: 0.8"/>
      </g>
     </g>
     <g id="text_8">
      <!-- 500 -->
      <g transform="translate(63.9125 260.02005) scale(0.1 -0.1)">
       <defs>
        <path id="DejaVuSans-35" d="M 691 4666 
L 3169 4666 
L 3169 4134 
L 1269 4134 
L 1269 2991 
Q 1406 3038 1543 3061 
Q 1681 3084 1819 3084 
Q 2600 3084 3056 2656 
Q 3513 2228 3513 1497 
Q 3513 744 3044 326 
Q 2575 -91 1722 -91 
Q 1428 -91 1123 -41 
Q 819 9 494 109 
L 494 744 
Q 775 591 1075 516 
Q 1375 441 1709 441 
Q 2250 441 2565 725 
Q 2881 1009 2881 1497 
Q 2881 1984 2565 2268 
Q 2250 2553 1709 2553 
Q 1456 2553 1204 2497 
Q 953 2441 691 2322 
L 691 4666 
z
" transform="scale(0.015625)"/>
       </defs>
       <use xlink:href="#DejaVuSans-35"/>
       <use xlink:href="#DejaVuSans-30" x="63.623047"/>
       <use xlink:href="#DejaVuSans-30" x="127.246094"/>
      </g>
     </g>
    </g>
    <g id="ytick_2">
     <g id="line2d_15">
      <path d="M 90 224.230987 
L 648 224.230987 
" clip-path="url(#pb37ab117b0)" style="fill: none; stroke: #b0b0b0; stroke-width: 0.8; stroke-linecap: square"/>
     </g>
     <g id="line2d_16">
      <g>
       <use xlink:href="#mb1bf578a59" x="90" y="224.230987" style="stroke: #000000; stroke-width: 0.8"/>
      </g>
     </g>
     <g id="text_9">
      <!-- 1000 -->
      <g transform="translate(57.55 228.030206) scale(0.1 -0.1)">
       <use xlink:href="#DejaVuSans-31"/>
       <use xlink:href="#DejaVuSans-30" x="63.623047"/>
       <use xlink:href="#DejaVuSans-30" x="127.246094"/>
       <use xlink:href="#DejaVuSans-30" x="190.869141"/>
      </g>
     </g>
    </g>
    <g id="ytick_3">
     <g id="line2d_17">
      <path d="M 90 192.241142 
L 648 192.241142 
" clip-path="url(#pb37ab117b0)" style="fill: none; stroke: #b0b0b0; stroke-width: 0.8; stroke-linecap: square"/>
     </g>
     <g id="line2d_18">
      <g>
       <use xlink:href="#mb1bf578a59" x="90" y="192.241142" style="stroke: #000000; stroke-width: 0.8"/>
      </g>
     </g>
     <g id="text_10">
      <!-- 1500 -->
      <g transform="translate(57.55 196.040361) scale(0.1 -0.1)">
       <use xlink:href="#DejaVuSans-31"/>
       <use xlink:href="#DejaVuSans-35" x="63.623047"/>
       <use xlink:href="#DejaVuSans-30" x="127.246094"/>
       <use xlink:href="#DejaVuSans-30" x="190.869141"/>
      </g>
     </g>
    </g>
    <g id="ytick_4">
     <g id="line2d_19">
      <path d="M 90 160.251298 
L 648 160.251298 
" clip-path="url(#pb37ab117b0)" style="fill: none; stroke: #b0b0b0; stroke-width: 0.8; stroke-linecap: square"/>
     </g>
     <g id="line2d_20">
      <g>
       <use xlink:href="#mb1bf578a59" x="90" y="160.251298" style="stroke: #000000; stroke-width: 0.8"/>
      </g>
     </g>
     <g id="text_11">
      <!-- 2000 -->
      <g transform="translate(57.55 164.050517) scale(0.1 -0.1)">
       <use xlink:href="#DejaVuSans-32"/>
       <use xlink:href="#DejaVuSans-30" x="63.623047"/>
       <use xlink:href="#DejaVuSans-30" x="127.246094"/>
       <use xlink:href="#DejaVuSans-30" x="190.869141"/>
      </g>
     </g>
    </g>
    <g id="ytick_5">
     <g id="line2d_21">
      <path d="M 90 128.261454 
L 648 128.261454 
" clip-path="url(#pb37ab117b0)" style="fill: none; stroke: #b0b0b0; stroke-width: 0.8; stroke-linecap: square"/>
     </g>
     <g id="line2d_22">
      <g>
       <use xlink:href="#mb1bf578a59" x="90" y="128.261454" style="stroke: #000000; stroke-width: 0.8"/>
      </g>
     </g>
     <g id="text_12">
      <!-- 2500 -->
      <g transform="translate(57.55 132.060672) scale(0.1 -0.1)">
       <use xlink:href="#DejaVuSans-32"/>
       <use xlink:href="#DejaVuSans-35" x="63.623047"/>
       <use xlink:href="#DejaVuSans-30" x="127.246094"/>
       <use xlink:href="#DejaVuSans-30" x="190.869141"/>
      </g>
     </g>
    </g>
    <g id="ytick_6">
     <g id="line2d_23">
      <path d="M 90 96.271609 
L 648 96.271609 
" clip-path="url(#pb37ab117b0)" style="fill: none; stroke: #b0b0b0; stroke-width: 0.8; stroke-linecap: square"/>
     </g>
     <g id="line2d_24">
      <g>
       <use xlink:href="#mb1bf578a59" x="90" y="96.271609" style="stroke: #000000; stroke-width: 0.8"/>
      </g>
     </g>
     <g id="text_13">
      <!-- 3000 -->
      <g transform="translate(57.55 100.070828) scale(0.1 -0.1)">
       <defs>
        <path id="DejaVuSans-33" d="M 2597 2516 
Q 3050 2419 3304 2112 
Q 3559 1806 3559 1356 
Q 3559 666 3084 287 
Q 2609 -91 1734 -91 
Q 1441 -91 1130 -33 
Q 819 25 488 141 
L 488 750 
Q 750 597 1062 519 
Q 1375 441 1716 441 
Q 2309 441 2620 675 
Q 2931 909 2931 1356 
Q 2931 1769 2642 2001 
Q 2353 2234 1838 2234 
L 1294 2234 
L 1294 2753 
L 1863 2753 
Q 2328 2753 2575 2939 
Q 2822 3125 2822 3475 
Q 2822 3834 2567 4026 
Q 2313 4219 1838 4219 
Q 1578 4219 1281 4162 
Q 984 4106 628 3988 
L 628 4550 
Q 988 4650 1302 4700 
Q 1616 4750 1894 4750 
Q 2613 4750 3031 4423 
Q 3450 4097 3450 3541 
Q 3450 3153 3228 2886 
Q 3006 2619 2597 2516 
z
" transform="scale(0.015625)"/>
       </defs>
       <use xlink:href="#DejaVuSans-33"/>
       <use xlink:href="#DejaVuSans-30" x="63.623047"/>
       <use xlink:href="#DejaVuSans-30" x="127.246094"/>
       <use xlink:href="#DejaVuSans-30" x="190.869141"/>
      </g>
     </g>
    </g>
    <g id="ytick_7">
     <g id="line2d_25">
      <path d="M 90 64.281765 
L 648 64.281765 
" clip-path="url(#pb37ab117b0)" style="fill: none; stroke: #b0b0b0; stroke-width: 0.8; stroke-linecap: square"/>
     </g>
     <g id="line2d_26">
      <g>
       <use xlink:href="#mb1bf578a59" x="90" y="64.281765" style="stroke: #000000; stroke-width: 0.8"/>
      </g>
     </g>
     <g id="text_14">
      <!-- 3500 -->
      <g transform="translate(57.55 68.080983) scale(0.1 -0.1)">
       <use xlink:href="#DejaVuSans-33"/>
       <use xlink:href="#DejaVuSans-35" x="63.623047"/>
       <use xlink:href="#DejaVuSans-30" x="127.246094"/>
       <use xlink:href="#DejaVuSans-30" x="190.869141"/>
      </g>
     </g>
    </g>
    <g id="text_15">
     <!-- Photon Counts -->
     <g transform="translate(51.470312 181.913437) rotate(-90) scale(0.1 -0.1)">
      <defs>
       <path id="DejaVuSans-50" d="M 1259 4147 
L 1259 2394 
L 2053 2394 
Q 2494 2394 2734 2622 
Q 2975 2850 2975 3272 
Q 2975 3691 2734 3919 
Q 2494 4147 2053 4147 
L 1259 4147 
z
M 628 4666 
L 2053 4666 
Q 2838 4666 3239 4311 
Q 3641 3956 3641 3272 
Q 3641 2581 3239 2228 
Q 2838 1875 2053 1875 
L 1259 1875 
L 1259 0 
L 628 0 
L 628 4666 
z
" transform="scale(0.015625)"/>
       <path id="DejaVuSans-68" d="M 3513 2113 
L 3513 0 
L 2938 0 
L 2938 2094 
Q 2938 2591 2744 2837 
Q 2550 3084 2163 3084 
Q 1697 3084 1428 2787 
Q 1159 2491 1159 1978 
L 1159 0 
L 581 0 
L 581 4863 
L 1159 4863 
L 1159 2956 
Q 1366 3272 1645 3428 
Q 1925 3584 2291 3584 
Q 2894 3584 3203 3211 
Q 3513 2838 3513 2113 
z
" transform="scale(0.015625)"/>
       <path id="DejaVuSans-6f" d="M 1959 3097 
Q 1497 3097 1228 2736 
Q 959 2375 959 1747 
Q 959 1119 1226 758 
Q 1494 397 1959 397 
Q 2419 397 2687 759 
Q 2956 1122 2956 1747 
Q 2956 2369 2687 2733 
Q 2419 3097 1959 3097 
z
M 1959 3584 
Q 2709 3584 3137 3096 
Q 3566 2609 3566 1747 
Q 3566 888 3137 398 
Q 2709 -91 1959 -91 
Q 1206 -91 779 398 
Q 353 888 353 1747 
Q 353 2609 779 3096 
Q 1206 3584 1959 3584 
z
" transform="scale(0.015625)"/>
       <path id="DejaVuSans-74" d="M 1172 4494 
L 1172 3500 
L 2356 3500 
L 2356 3053 
L 1172 3053 
L 1172 1153 
Q 1172 725 1289 603 
Q 1406 481 1766 481 
L 2356 481 
L 2356 0 
L 1766 0 
Q 1100 0 847 248 
Q 594 497 594 1153 
L 594 3053 
L 172 3053 
L 172 3500 
L 594 3500 
L 594 4494 
L 1172 4494 
z
" transform="scale(0.015625)"/>
       <path id="DejaVuSans-6e" d="M 3513 2113 
L 3513 0 
L 2938 0 
L 2938 2094 
Q 2938 2591 2744 2837 
Q 2550 3084 2163 3084 
Q 1697 3084 1428 2787 
Q 1159 2491 1159 1978 
L 1159 0 
L 581 0 
L 581 3500 
L 1159 3500 
L 1159 2956 
Q 1366 3272 1645 3428 
Q 1925 3584 2291 3584 
Q 2894 3584 3203 3211 
Q 3513 2838 3513 2113 
z
" transform="scale(0.015625)"/>
       <path id="DejaVuSans-43" d="M 4122 4306 
L 4122 3641 
Q 3803 3938 3442 4084 
Q 3081 4231 2675 4231 
Q 1875 4231 1450 3742 
Q 1025 3253 1025 2328 
Q 1025 1406 1450 917 
Q 1875 428 2675 428 
Q 3081 428 3442 575 
Q 3803 722 4122 1019 
L 4122 359 
Q 3791 134 3420 21 
Q 3050 -91 2638 -91 
Q 1578 -91 968 557 
Q 359 1206 359 2328 
Q 359 3453 968 4101 
Q 1578 4750 2638 4750 
Q 3056 4750 3426 4639 
Q 3797 4528 4122 4306 
z
" transform="scale(0.015625)"/>
       <path id="DejaVuSans-75" d="M 544 1381 
L 544 3500 
L 1119 3500 
L 1119 1403 
Q 1119 906 1312 657 
Q 1506 409 1894 409 
Q 2359 409 2629 706 
Q 2900 1003 2900 1516 
L 2900 3500 
L 3475 3500 
L 3475 0 
L 2900 0 
L 2900 538 
Q 2691 219 2414 64 
Q 2138 -91 1772 -91 
Q 1169 -91 856 284 
Q 544 659 544 1381 
z
M 1991 3584 
L 1991 3584 
z
" transform="scale(0.015625)"/>
      </defs>
      <use xlink:href="#DejaVuSans-50"/>
      <use xlink:href="#DejaVuSans-68" x="60.302734"/>
      <use xlink:href="#DejaVuSans-6f" x="123.681641"/>
      <use xlink:href="#DejaVuSans-74" x="184.863281"/>
      <use xlink:href="#DejaVuSans-6f" x="224.072266"/>
      <use xlink:href="#DejaVuSans-6e" x="285.253906"/>
      <use xlink:href="#DejaVuSans-20" x="348.632812"/>
      <use xlink:href="#DejaVuSans-43" x="380.419922"/>
      <use xlink:href="#DejaVuSans-6f" x="450.244141"/>
      <use xlink:href="#DejaVuSans-75" x="511.425781"/>
      <use xlink:href="#DejaVuSans-6e" x="574.804688"/>
      <use xlink:href="#DejaVuSans-74" x="638.183594"/>
      <use xlink:href="#DejaVuSans-73" x="677.392578"/>
     </g>
    </g>
   </g>
   <g id="line2d_27">
    <path d="M 115.363636 240.03397 
L 115.859504 243.872752 
L 116.355372 244.000711 
L 116.85124 240.09795 
L 117.842975 242.785097 
L 118.338843 240.993666 
L 118.834711 241.313564 
L 119.330579 240.609787 
L 119.826446 244.384589 
L 120.322314 242.913056 
L 120.818182 240.801726 
L 121.31405 244.960406 
L 121.809917 238.114579 
L 122.305785 242.593158 
L 122.801653 244.320609 
L 123.297521 242.849076 
L 123.793388 240.993666 
L 124.289256 239.778051 
L 124.785124 240.03397 
L 125.280992 239.842031 
L 125.77686 240.03397 
L 126.272727 244.000711 
L 126.768595 246.24 
L 127.264463 241.121625 
L 127.760331 238.882336 
L 128.256198 241.761422 
L 128.752066 242.401219 
L 129.247934 240.673767 
L 129.743802 240.993666 
L 130.239669 240.03397 
L 130.735537 243.616833 
L 131.231405 238.946315 
L 131.727273 240.993666 
L 132.22314 238.178559 
L 132.719008 237.730701 
L 133.214876 237.794681 
L 133.710744 237.730701 
L 134.206612 237.026925 
L 134.702479 236.898965 
L 135.198347 241.057645 
L 135.694215 241.313564 
L 136.190083 238.882336 
L 136.68595 237.98662 
L 137.181818 241.185605 
L 137.677686 240.865706 
L 138.173554 239.458153 
L 139.165289 240.801726 
L 139.661157 239.394173 
L 140.157025 239.586112 
L 140.652893 237.602742 
L 141.14876 239.522133 
L 141.644628 245.216325 
L 142.140496 238.818356 
L 142.636364 239.202234 
L 143.132231 239.138255 
L 143.628099 241.825401 
L 144.123967 238.562437 
L 144.619835 240.417848 
L 145.115702 237.346823 
L 145.61157 237.538762 
L 146.107438 235.363453 
L 146.603306 236.771006 
L 147.099174 236.451108 
L 147.595041 236.898965 
L 148.090909 237.090904 
L 148.586777 237.474783 
L 149.082645 237.218864 
L 149.578512 235.043554 
L 150.07438 236.834986 
L 150.570248 239.906011 
L 151.066116 236.131209 
L 151.561983 239.458153 
L 152.057851 235.299473 
L 152.553719 236.323148 
L 153.049587 235.87529 
L 153.545455 234.915595 
L 154.041322 236.771006 
L 154.53719 237.858661 
L 155.033058 235.811311 
L 155.528926 239.330194 
L 156.024793 231.524672 
L 156.520661 238.434478 
L 157.016529 235.107534 
L 157.512397 236.323148 
L 158.008264 232.740286 
L 158.504132 236.451108 
L 159 235.043554 
L 159.495868 239.586112 
L 160.487603 235.619372 
L 160.983471 237.858661 
L 161.479339 235.107534 
L 161.975207 235.363453 
L 162.471074 235.491412 
L 162.966942 232.292428 
L 163.46281 236.515087 
L 163.958678 238.434478 
L 164.454545 235.171514 
L 164.950413 234.851615 
L 165.942149 231.140793 
L 166.933884 235.87529 
L 167.429752 234.403758 
L 167.92562 231.652631 
L 168.421488 236.323148 
L 168.917355 234.723656 
L 169.413223 235.87529 
L 169.909091 236.195189 
L 170.404959 233.444062 
L 170.900826 234.467737 
L 171.396694 234.083859 
L 171.892562 235.491412 
L 172.38843 229.541301 
L 172.884298 231.652631 
L 173.380165 231.268753 
L 173.876033 232.804265 
L 174.371901 231.460692 
L 174.867769 231.012834 
L 175.363636 230.820895 
L 175.859504 231.84457 
L 176.355372 233.252123 
L 176.85124 228.453646 
L 177.347107 234.403758 
L 178.338843 230.053139 
L 178.834711 233.699981 
L 179.330579 234.659676 
L 179.826446 232.804265 
L 180.322314 228.901504 
L 180.818182 232.036509 
L 181.809917 230.948854 
L 182.305785 228.453646 
L 182.801653 229.605281 
L 183.297521 228.645586 
L 183.793388 229.221403 
L 184.289256 233.252123 
L 184.785124 231.268753 
L 185.280992 228.261707 
L 185.77686 232.548347 
L 186.272727 230.756915 
L 186.768595 228.197728 
L 187.264463 228.645586 
L 187.760331 229.669261 
L 188.256198 232.356407 
L 188.752066 229.8612 
L 189.247934 228.069768 
L 189.743802 227.74987 
L 190.239669 230.437017 
L 190.735537 230.245078 
L 191.231405 226.150378 
L 191.727273 229.221403 
L 192.22314 227.238032 
L 192.719008 231.268753 
L 193.710744 229.669261 
L 194.206612 225.446601 
L 194.702479 228.581606 
L 195.198347 227.621911 
L 195.694215 228.709565 
L 196.190083 230.373037 
L 196.68595 225.7665 
L 197.181818 226.982114 
L 197.677686 227.238032 
L 198.173554 229.093443 
L 198.669421 224.806804 
L 199.165289 226.342317 
L 199.661157 227.302012 
L 200.157025 227.302012 
L 200.652893 226.214357 
L 201.14876 221.54384 
L 201.644628 229.029464 
L 202.140496 228.005789 
L 202.636364 224.678845 
L 203.628099 227.174053 
L 204.123967 226.918134 
L 204.619835 223.975068 
L 205.115702 227.877829 
L 205.61157 224.103028 
L 206.107438 225.510581 
L 206.603306 224.294967 
L 207.099174 228.325687 
L 208.586777 221.991698 
L 209.082645 226.214357 
L 209.578512 223.975068 
L 210.07438 222.503535 
L 210.570248 227.238032 
L 211.066116 229.349362 
L 211.561983 223.143332 
L 212.057851 226.150378 
L 212.553719 223.911089 
L 213.049587 224.486906 
L 213.545455 223.271292 
L 214.041322 221.54384 
L 214.53719 220.264246 
L 215.033058 224.614865 
L 215.528926 223.463231 
L 216.024793 219.112612 
L 216.520661 220.072307 
L 217.016529 221.799759 
L 217.512397 221.863738 
L 218.008264 223.65517 
L 219 219.43251 
L 219.495868 221.60782 
L 219.991736 219.368531 
L 220.487603 217.833018 
L 220.983471 220.968023 
L 221.479339 217.769038 
L 221.975207 219.368531 
L 222.471074 218.216896 
L 222.966942 218.472815 
L 223.46281 217.960977 
L 223.958678 218.408835 
L 224.454545 218.536795 
L 224.950413 217.321181 
L 225.446281 219.624449 
L 225.942149 215.657709 
L 226.438017 217.51312 
L 226.933884 214.761993 
L 227.429752 217.769038 
L 227.92562 216.105566 
L 228.421488 219.56047 
L 228.917355 220.712104 
L 229.413223 218.984652 
L 229.909091 219.048632 
L 230.404959 218.344856 
L 230.900826 215.785668 
L 231.396694 216.169546 
L 231.892562 218.408835 
L 232.38843 218.408835 
L 232.884298 219.112612 
L 233.380165 216.105566 
L 233.876033 216.425465 
L 234.371901 218.024957 
L 234.867769 219.112612 
L 235.363636 214.378115 
L 235.859504 216.617404 
L 236.355372 215.721688 
L 236.85124 215.593729 
L 237.347107 216.809343 
L 237.842975 215.145871 
L 238.338843 214.506074 
L 238.834711 214.506074 
L 239.330579 211.17913 
L 239.826446 211.30709 
L 240.322314 214.953932 
L 240.818182 210.603313 
L 241.31405 212.522704 
L 242.305785 209.19576 
L 242.801653 211.051171 
L 243.793388 213.546379 
L 244.289256 209.963516 
L 244.785124 209.25974 
L 245.280992 209.003821 
L 245.77686 209.323719 
L 246.272727 212.906582 
L 246.768595 213.994237 
L 247.264463 205.484938 
L 247.760331 210.923212 
L 248.256198 211.946887 
L 248.752066 210.411374 
L 249.247934 206.188715 
L 249.743802 212.138826 
L 250.239669 205.932796 
L 250.735537 212.842602 
L 251.231405 206.828512 
L 252.22314 209.963516 
L 253.214876 206.444633 
L 253.710744 206.700552 
L 254.206612 205.804837 
L 254.702479 204.205344 
L 255.198347 208.683923 
L 255.694215 209.771577 
L 256.190083 208.300044 
L 256.68595 210.091476 
L 257.181818 202.477893 
L 257.677686 205.10106 
L 258.173554 200.558502 
L 258.669421 204.333304 
L 259.165289 206.252694 
L 259.661157 209.835557 
L 260.157025 204.461263 
L 260.652893 208.811882 
L 261.14876 201.902076 
L 261.644628 207.852187 
L 262.140496 204.333304 
L 262.636364 204.077385 
L 263.132231 202.477893 
L 263.628099 205.03708 
L 264.123967 205.548918 
L 264.619835 201.582177 
L 265.115702 205.356979 
L 265.61157 202.797791 
L 266.107438 202.733811 
L 266.603306 198.255233 
L 267.099174 201.966055 
L 267.595041 203.949426 
L 268.090909 202.733811 
L 268.586777 203.757487 
L 269.082645 200.430543 
L 269.578512 199.02299 
L 270.07438 200.110644 
L 270.570248 202.030035 
L 271.066116 200.430543 
L 271.561983 196.015944 
L 272.057851 200.94238 
L 272.553719 204.589222 
L 273.049587 198.575132 
L 273.545455 197.039619 
L 274.041322 197.103599 
L 274.53719 195.248188 
L 275.033058 199.406868 
L 275.528926 199.342888 
L 276.024793 197.039619 
L 276.520661 197.615436 
L 277.016529 196.975639 
L 277.512397 196.84768 
L 278.008264 197.679416 
L 278.504132 196.719721 
L 279 198.703091 
L 279.991736 193.904614 
L 280.487603 196.143904 
L 280.983471 186.994808 
L 281.479339 195.312168 
L 281.975207 189.745935 
L 282.471074 192.177163 
L 282.966942 193.264818 
L 283.46281 187.890524 
L 283.958678 191.153488 
L 284.454545 192.241142 
L 284.950413 190.513691 
L 285.446281 196.015944 
L 285.942149 191.473386 
L 286.438017 194.480432 
L 286.933884 191.601346 
L 287.429752 191.409407 
L 287.92562 189.106138 
L 288.421488 185.587255 
L 288.917355 189.553996 
L 289.413223 190.961549 
L 289.909091 188.018483 
L 290.404959 186.035113 
L 290.900826 189.490016 
L 291.396694 187.058788 
L 291.892562 184.051742 
L 292.38843 183.923783 
L 293.380165 189.106138 
L 294.371901 183.603884 
L 294.867769 184.051742 
L 295.363636 189.937874 
L 295.859504 183.347966 
L 296.355372 182.772149 
L 296.85124 184.179702 
L 297.347107 178.229591 
L 297.842975 185.075417 
L 298.338843 185.843174 
L 298.834711 182.644189 
L 299.330579 175.350505 
L 299.826446 182.51623 
L 300.322314 181.300616 
L 300.818182 180.724798 
L 301.31405 181.236636 
L 301.809917 174.134891 
L 302.305785 175.926322 
L 302.801653 174.646728 
L 303.297521 175.158566 
L 303.793388 178.101631 
L 304.289256 178.997347 
L 304.785124 177.973672 
L 305.280992 178.933367 
L 305.77686 179.317245 
L 306.272727 178.485509 
L 306.768595 172.983256 
L 307.760331 177.589794 
L 308.256198 175.670403 
L 308.752066 175.478464 
L 309.247934 174.646728 
L 309.743802 169.656312 
L 310.239669 170.424069 
L 310.735537 174.390809 
L 311.231405 172.471419 
L 311.727273 173.047236 
L 312.22314 172.2155 
L 312.719008 170.871926 
L 313.214876 171.959581 
L 313.710744 171.895601 
L 314.206612 172.663358 
L 314.702479 166.265389 
L 315.198347 168.504678 
L 315.694215 160.699156 
L 316.190083 170.16815 
L 316.68595 163.258343 
L 317.181818 167.544983 
L 318.173554 160.763136 
L 318.669421 168.312739 
L 319.165289 165.177734 
L 319.661157 164.537937 
L 320.157025 160.763136 
L 321.14876 161.338953 
L 321.644628 160.955075 
L 322.140496 162.490587 
L 322.636364 157.308232 
L 323.132231 160.315278 
L 323.628099 161.85079 
L 324.123967 163.002425 
L 324.619835 157.82007 
L 325.115702 158.075989 
L 325.61157 156.476496 
L 326.107438 154.237207 
L 326.603306 152.701695 
L 327.099174 156.796395 
L 327.595041 155.836699 
L 328.090909 155.516801 
L 328.586777 150.654345 
L 329.082645 156.220578 
L 330.07438 151.61404 
L 330.570248 147.967198 
L 331.066116 150.590365 
L 331.561983 151.038223 
L 332.057851 145.47199 
L 332.553719 147.199441 
L 333.049587 151.422101 
L 333.545455 145.791888 
L 334.041322 145.727909 
L 334.53719 149.63067 
L 335.033058 151.038223 
L 335.528926 147.967198 
L 336.024793 147.58332 
L 336.520661 139.649838 
L 337.016529 142.273005 
L 337.512397 141.633209 
L 338.008264 145.088112 
L 338.504132 140.225655 
L 339 140.609533 
L 339.495868 140.673513 
L 339.991736 139.26596 
L 340.487603 142.528924 
L 340.983471 143.744538 
L 341.479339 136.642793 
L 341.975207 138.114326 
L 342.471074 138.434224 
L 342.966942 129.796966 
L 343.958678 135.299219 
L 344.454545 134.083605 
L 344.950413 129.477068 
L 345.446281 134.979321 
L 345.942149 133.827686 
L 346.438017 129.02921 
L 346.933884 132.740032 
L 347.429752 122.695221 
L 347.92562 125.126449 
L 348.421488 130.9486 
L 348.917355 124.742571 
L 349.413223 120.072053 
L 349.909091 119.816135 
L 350.404959 117.256947 
L 350.900826 120.83981 
L 351.396694 120.391952 
L 351.892562 120.967769 
L 352.38843 117.832764 
L 352.884298 117.832764 
L 353.380165 124.486652 
L 354.371901 114.50582 
L 354.867769 110.986937 
L 355.363636 109.899283 
L 355.859504 105.804583 
L 356.355372 104.844887 
L 356.85124 107.468055 
L 357.347107 113.098267 
L 357.842975 107.084176 
L 358.338843 104.716928 
L 358.834711 104.26907 
L 359.330579 98.638858 
L 359.826446 95.503853 
L 360.322314 98.06304 
L 360.818182 90.513437 
L 361.31405 95.887731 
L 361.809917 98.12702 
L 362.305785 97.167325 
L 362.801653 89.105884 
L 363.297521 86.034859 
L 363.793388 88.530067 
L 364.289256 85.650981 
L 364.785124 84.371387 
L 365.280992 83.73159 
L 365.77686 74.838413 
L 366.272727 76.118007 
L 366.768595 66.457074 
L 367.264463 72.919023 
L 367.760331 62.746252 
L 368.256198 60.187064 
L 368.752066 44.64 
L 370.239669 68.824322 
L 370.735537 72.151266 
L 371.231405 73.814738 
L 371.727273 71.575449 
L 372.22314 73.110962 
L 372.719008 85.011184 
L 373.710744 84.051488 
L 374.206612 88.210168 
L 374.702479 83.987509 
L 375.198347 89.93762 
L 375.694215 89.681701 
L 376.190083 96.07967 
L 376.68595 94.288239 
L 377.181818 96.07967 
L 377.677686 104.716928 
L 378.173554 103.757233 
L 378.669421 104.908867 
L 379.165289 102.541619 
L 379.661157 105.932542 
L 380.157025 101.262025 
L 380.652893 103.181415 
L 381.14876 107.659994 
L 381.644628 114.889699 
L 382.140496 114.441841 
L 382.636364 111.050917 
L 383.628099 113.674084 
L 384.123967 122.567261 
L 384.619835 111.754694 
L 385.115702 112.52245 
L 385.61157 113.034288 
L 386.107438 122.247363 
L 386.603306 121.543586 
L 387.099174 121.415627 
L 387.595041 124.230733 
L 388.090909 122.7592 
L 388.586777 124.294713 
L 389.082645 126.8539 
L 389.578512 122.7592 
L 390.07438 126.022164 
L 390.570248 119.816135 
L 391.066116 131.588397 
L 391.561983 131.972275 
L 392.057851 128.709311 
L 392.553719 131.14054 
L 393.049587 131.588397 
L 393.545455 128.773291 
L 394.041322 132.420133 
L 394.53719 138.242285 
L 395.033058 137.602488 
L 395.528926 134.083605 
L 396.024793 135.23524 
L 396.520661 141.569229 
L 397.016529 137.730447 
L 397.512397 139.32994 
L 398.008264 139.074021 
L 398.504132 143.29668 
L 399 143.680559 
L 399.495868 144.384335 
L 399.991736 139.969737 
L 400.487603 141.953107 
L 400.983471 139.521879 
L 401.479339 144.768213 
L 401.975207 147.647299 
L 402.471074 148.543015 
L 402.966942 145.024132 
L 403.46281 148.351076 
L 403.958678 144.640254 
L 404.454545 150.590365 
L 404.950413 152.765674 
L 405.446281 148.095157 
L 405.942149 146.303726 
L 406.438017 154.237207 
L 406.933884 150.974243 
L 407.429752 151.166182 
L 407.92562 160.763136 
L 408.421488 149.950568 
L 408.917355 149.886588 
L 409.413223 154.813024 
L 409.909091 154.365167 
L 410.404959 157.69211 
L 410.900826 153.789349 
L 411.396694 159.163643 
L 411.892562 150.974243 
L 412.38843 155.388842 
L 412.884298 155.388842 
L 413.380165 157.75609 
L 413.876033 156.668435 
L 414.371901 159.547521 
L 414.867769 160.763136 
L 415.363636 160.827115 
L 415.859504 159.611501 
L 416.355372 154.749045 
L 416.85124 165.113754 
L 417.347107 163.706201 
L 417.842975 157.180273 
L 418.338843 167.225084 
L 418.834711 167.481003 
L 419.330579 158.971704 
L 419.826446 159.483542 
L 420.322314 162.874465 
L 420.818182 163.194364 
L 421.31405 170.616008 
L 421.809917 169.656312 
L 422.305785 169.592333 
L 422.801653 175.158566 
L 423.297521 167.928861 
L 423.793388 173.367134 
L 424.289256 173.239175 
L 424.785124 169.144475 
L 425.280992 173.751012 
L 425.77686 175.094586 
L 426.272727 165.817531 
L 427.264463 171.895601 
L 427.760331 172.08754 
L 428.752066 169.976211 
L 429.743802 175.542444 
L 430.239669 176.37418 
L 430.735537 176.37418 
L 431.727273 180.532859 
L 432.22314 175.030606 
L 432.719008 173.687033 
L 433.214876 175.542444 
L 433.710744 179.893063 
L 434.206612 179.125306 
L 434.702479 180.148981 
L 435.198347 177.909692 
L 435.694215 176.758058 
L 436.190083 178.613469 
L 436.68595 179.701123 
L 437.181818 182.38827 
L 437.677686 179.957042 
L 438.173554 183.156027 
L 438.669421 179.573164 
L 439.165289 174.32683 
L 439.661157 180.724798 
L 440.157025 183.475925 
L 440.652893 181.044697 
L 441.14876 179.189286 
L 441.644628 189.490016 
L 442.140496 179.765103 
L 442.636364 182.708169 
L 443.628099 186.163072 
L 444.123967 186.802869 
L 444.619835 181.364595 
L 445.115702 185.971133 
L 445.61157 185.907153 
L 446.107438 183.411945 
L 446.603306 184.115722 
L 447.595041 194.160533 
L 448.090909 188.210422 
L 448.586777 189.298077 
L 449.082645 188.65828 
L 449.578512 188.5943 
L 450.07438 192.113183 
L 450.570248 189.937874 
L 451.066116 191.665325 
L 451.561983 192.75298 
L 452.057851 192.689 
L 452.553719 192.369102 
L 453.049587 193.904614 
L 453.545455 192.944919 
L 454.53719 192.75298 
L 455.033058 193.904614 
L 455.528926 187.442666 
L 456.520661 198.191254 
L 457.016529 196.975639 
L 457.512397 187.442666 
L 458.008264 196.975639 
L 458.504132 199.854725 
L 459 194.73635 
L 459.495868 197.615436 
L 459.991736 197.487477 
L 460.487603 197.167579 
L 460.983471 193.968594 
L 461.479339 191.729305 
L 461.975207 199.02299 
L 462.471074 199.982685 
L 462.966942 199.278908 
L 463.46281 193.136858 
L 464.454545 200.302583 
L 464.950413 201.00636 
L 465.446281 196.015944 
L 466.438017 202.349933 
L 466.933884 202.221974 
L 467.429752 201.902076 
L 467.92562 199.726766 
L 468.421488 201.454218 
L 468.917355 203.949426 
L 469.413223 204.589222 
L 469.909091 203.885446 
L 470.404959 201.00636 
L 470.900826 202.797791 
L 471.396694 198.255233 
L 471.892562 202.285954 
L 472.38843 202.030035 
L 472.884298 201.07034 
L 473.380165 202.157994 
L 473.876033 200.302583 
L 474.371901 204.333304 
L 474.867769 205.420958 
L 475.363636 207.468308 
L 475.859504 207.532288 
L 476.355372 197.615436 
L 476.85124 209.899537 
L 477.347107 211.30709 
L 478.338843 201.774116 
L 478.834711 212.010866 
L 479.330579 205.292999 
L 479.826446 205.356979 
L 480.322314 206.956471 
L 480.818182 204.141365 
L 481.31405 211.115151 
L 481.809917 208.491983 
L 482.305785 208.811882 
L 482.801653 205.676877 
L 483.297521 212.458724 
L 483.793388 206.828512 
L 484.289256 208.364024 
L 484.785124 209.451679 
L 485.280992 203.245649 
L 485.77686 209.643618 
L 486.272727 210.667293 
L 486.768595 209.963516 
L 487.264463 210.219435 
L 487.760331 208.364024 
L 488.256198 214.442095 
L 489.247934 207.788207 
L 489.743802 207.660248 
L 490.239669 210.923212 
L 490.735537 213.162501 
L 491.231405 211.115151 
L 491.727273 209.963516 
L 492.22314 212.394745 
L 492.719008 210.987191 
L 493.214876 214.698013 
L 493.710744 215.40179 
L 494.206612 215.593729 
L 494.702479 212.330765 
L 495.198347 211.115151 
L 495.694215 212.970562 
L 496.190083 214.186176 
L 496.68595 213.098521 
L 497.181818 214.698013 
L 497.677686 213.674338 
L 498.173554 221.60782 
L 498.669421 212.906582 
L 499.165289 210.603313 
L 499.661157 219.112612 
L 500.157025 215.849648 
L 500.652893 218.152917 
L 501.14876 215.721688 
L 501.644628 215.849648 
L 502.140496 217.257201 
L 502.636364 216.233526 
L 503.132231 218.664754 
L 503.628099 211.563009 
L 504.123967 216.233526 
L 504.619835 218.600774 
L 505.115702 220.136287 
L 505.61157 218.664754 
L 506.107438 219.240571 
L 506.603306 222.695474 
L 507.099174 215.849648 
L 507.595041 216.297506 
L 508.090909 217.129242 
L 508.586777 216.361485 
L 509.082645 221.223942 
L 509.578512 218.024957 
L 510.07438 213.034541 
L 510.570248 216.169546 
L 511.066116 217.833018 
L 511.561983 212.778623 
L 512.057851 222.119657 
L 512.553719 216.425465 
L 513.545455 219.112612 
L 514.041322 219.240571 
L 514.53719 221.47986 
L 515.033058 223.079353 
L 515.528926 220.264246 
L 516.024793 223.975068 
L 516.520661 218.600774 
L 517.016529 218.472815 
L 517.512397 219.048632 
L 518.008264 222.951393 
L 518.504132 224.230987 
L 519 218.408835 
L 519.495868 221.47986 
L 519.991736 219.304551 
L 520.983471 221.159962 
L 521.479339 223.783129 
L 521.975207 221.159962 
L 522.471074 225.318642 
L 522.966942 226.534256 
L 523.46281 221.47986 
L 523.958678 221.47986 
L 524.454545 223.271292 
L 524.950413 220.712104 
L 525.942149 225.254662 
L 526.438017 217.51312 
L 526.933884 225.57456 
L 527.429752 225.894459 
L 527.92562 219.176592 
L 528.421488 225.254662 
L 528.917355 218.984652 
L 529.413223 222.503535 
L 529.909091 221.60782 
L 530.404959 226.982114 
L 530.900826 222.887414 
L 531.892562 228.901504 
L 532.38843 227.174053 
L 532.884298 223.911089 
L 533.380165 225.126703 
L 533.876033 224.678845 
L 534.371901 225.510581 
L 534.867769 225.70252 
L 535.363636 226.662215 
L 535.859504 223.079353 
L 536.355372 222.567515 
L 536.85124 223.847109 
L 537.347107 225.958439 
L 537.842975 226.086398 
L 538.338843 225.126703 
L 538.834711 225.57456 
L 539.330579 230.628956 
L 539.826446 227.302012 
L 540.322314 229.477321 
L 540.818182 224.934764 
L 541.31405 226.918134 
L 541.809917 229.477321 
L 543.297521 227.174053 
L 543.793388 229.029464 
L 544.289256 226.086398 
L 544.785124 227.877829 
L 545.280992 226.918134 
L 545.77686 228.965484 
L 546.272727 229.989159 
L 547.264463 226.278337 
L 547.760331 223.719149 
L 548.256198 229.349362 
L 548.752066 228.453646 
L 549.247934 227.238032 
L 549.743802 231.332732 
L 550.239669 230.692936 
L 550.735537 229.541301 
L 551.231405 230.564976 
L 551.727273 231.012834 
L 552.22314 231.268753 
L 552.719008 230.053139 
L 553.214876 229.79722 
L 553.710744 226.598235 
L 554.206612 232.612326 
L 554.702479 231.332732 
L 555.198347 232.420387 
L 555.694215 230.692936 
L 556.190083 228.325687 
L 556.68595 228.645586 
L 557.181818 232.676306 
L 557.677686 230.756915 
L 558.173554 230.181098 
L 558.669421 233.508042 
L 559.165289 232.292428 
L 559.661157 230.309057 
L 560.157025 229.349362 
L 560.652893 229.989159 
L 561.14876 232.676306 
L 561.644628 233.699981 
L 562.140496 230.948854 
L 562.636364 231.460692 
L 563.628099 233.316103 
L 564.123967 228.453646 
L 564.619835 234.019879 
L 565.115702 229.157423 
L 565.61157 233.82794 
L 566.107438 232.676306 
L 566.603306 236.131209 
L 567.099174 233.82794 
L 567.595041 233.763961 
L 568.090909 231.076814 
L 568.586777 231.588651 
L 569.082645 234.403758 
L 569.578512 235.299473 
L 570.07438 231.90855 
L 570.570248 234.403758 
L 571.066116 232.932225 
L 571.561983 236.962945 
L 572.057851 232.612326 
L 572.553719 235.93927 
L 573.049587 233.508042 
L 574.041322 236.195189 
L 574.53719 233.444062 
L 575.528926 235.555392 
L 576.024793 236.771006 
L 576.520661 237.026925 
L 578.008264 233.572022 
L 578.504132 236.579067 
L 579 232.932225 
L 579.495868 235.491412 
L 579.991736 234.659676 
L 580.487603 235.107534 
L 580.983471 236.00325 
L 581.479339 234.019879 
L 581.975207 235.747331 
L 582.471074 236.067229 
L 582.966942 239.266214 
L 583.46281 233.572022 
L 583.958678 229.925179 
L 584.454545 236.643047 
L 584.950413 237.98662 
L 585.446281 237.602742 
L 585.942149 238.946315 
L 586.933884 236.387128 
L 587.429752 239.010295 
L 587.92562 236.195189 
L 588.917355 239.074275 
L 589.413223 234.083859 
L 589.909091 238.498458 
L 590.404959 235.619372 
L 590.900826 235.299473 
L 591.396694 235.427433 
L 591.892562 239.522133 
L 592.38843 238.242539 
L 592.884298 238.242539 
L 593.380165 233.380083 
L 594.371901 240.993666 
L 594.867769 237.602742 
L 595.363636 236.643047 
L 595.859504 240.673767 
L 596.355372 240.609787 
L 597.347107 237.282844 
L 597.842975 237.282844 
L 598.338843 239.458153 
L 598.834711 239.778051 
L 599.330579 237.602742 
L 599.826446 236.962945 
L 600.322314 238.178559 
L 600.818182 240.545808 
L 601.31405 242.1453 
L 601.809917 238.370498 
L 602.305785 241.249584 
L 602.801653 239.96999 
L 603.297521 239.522133 
L 603.793388 241.889381 
L 604.289256 240.801726 
L 604.785124 243.424894 
L 605.77686 240.609787 
L 606.272727 237.666722 
L 606.768595 237.858661 
L 607.264463 239.650092 
L 607.760331 233.572022 
L 608.256198 235.299473 
L 608.752066 240.225909 
L 609.247934 240.03397 
L 609.743802 242.657137 
L 610.239669 242.849076 
L 610.735537 241.953361 
L 611.231405 239.394173 
L 611.727273 242.08132 
L 612.22314 237.474783 
L 612.719008 239.714072 
L 613.214876 242.657137 
L 613.710744 239.586112 
L 614.206612 242.20928 
L 614.702479 242.20928 
L 615.198347 243.168975 
L 615.694215 238.690397 
L 616.190083 241.569483 
L 616.68595 243.616833 
L 617.677686 241.505503 
L 618.173554 239.650092 
L 618.669421 243.744792 
L 619.165289 242.08132 
L 619.661157 243.552853 
L 620.157025 239.330194 
L 620.652893 243.424894 
L 621.14876 241.761422 
L 621.644628 241.889381 
L 622.140496 243.360914 
L 622.636364 241.633462 
L 622.636364 241.633462 
" clip-path="url(#pb37ab117b0)" style="fill: none; stroke: #9370db; stroke-width: 1.5; stroke-linecap: square"/>
   </g>
   <g id="patch_3">
    <path d="M 90 256.32 
L 90 34.56 
" style="fill: none; stroke: #000000; stroke-width: 0.8; stroke-linejoin: miter; stroke-linecap: square"/>
   </g>
   <g id="patch_4">
    <path d="M 648 256.32 
L 648 34.56 
" style="fill: none; stroke: #000000; stroke-width: 0.8; stroke-linejoin: miter; stroke-linecap: square"/>
   </g>
   <g id="patch_5">
    <path d="M 90 256.32 
L 648 256.32 
" style="fill: none; stroke: #000000; stroke-width: 0.8; stroke-linejoin: miter; stroke-linecap: square"/>
   </g>
   <g id="patch_6">
    <path d="M 90 34.56 
L 648 34.56 
" style="fill: none; stroke: #000000; stroke-width: 0.8; stroke-linejoin: miter; stroke-linecap: square"/>
   </g>
   <g id="text_16">
    <!-- 1D Density Profile (X-Axis) -->
    <g transform="translate(290.408437 28.56) scale(0.12 -0.12)">
     <defs>
      <path id="DejaVuSans-44" d="M 1259 4147 
L 1259 519 
L 2022 519 
Q 2988 519 3436 956 
Q 3884 1394 3884 2338 
Q 3884 3275 3436 3711 
Q 2988 4147 2022 4147 
L 1259 4147 
z
M 628 4666 
L 1925 4666 
Q 3281 4666 3915 4102 
Q 4550 3538 4550 2338 
Q 4550 1131 3912 565 
Q 3275 0 1925 0 
L 628 0 
L 628 4666 
z
" transform="scale(0.015625)"/>
      <path id="DejaVuSans-79" d="M 2059 -325 
Q 1816 -950 1584 -1140 
Q 1353 -1331 966 -1331 
L 506 -1331 
L 506 -850 
L 844 -850 
Q 1081 -850 1212 -737 
Q 1344 -625 1503 -206 
L 1606 56 
L 191 3500 
L 800 3500 
L 1894 763 
L 2988 3500 
L 3597 3500 
L 2059 -325 
z
" transform="scale(0.015625)"/>
      <path id="DejaVuSans-72" d="M 2631 2963 
Q 2534 3019 2420 3045 
Q 2306 3072 2169 3072 
Q 1681 3072 1420 2755 
Q 1159 2438 1159 1844 
L 1159 0 
L 581 0 
L 581 3500 
L 1159 3500 
L 1159 2956 
Q 1341 3275 1631 3429 
Q 1922 3584 2338 3584 
Q 2397 3584 2469 3576 
Q 2541 3569 2628 3553 
L 2631 2963 
z
" transform="scale(0.015625)"/>
      <path id="DejaVuSans-66" d="M 2375 4863 
L 2375 4384 
L 1825 4384 
Q 1516 4384 1395 4259 
Q 1275 4134 1275 3809 
L 1275 3500 
L 2222 3500 
L 2222 3053 
L 1275 3053 
L 1275 0 
L 697 0 
L 697 3053 
L 147 3053 
L 147 3500 
L 697 3500 
L 697 3744 
Q 697 4328 969 4595 
Q 1241 4863 1831 4863 
L 2375 4863 
z
" transform="scale(0.015625)"/>
      <path id="DejaVuSans-2d" d="M 313 2009 
L 1997 2009 
L 1997 1497 
L 313 1497 
L 313 2009 
z
" transform="scale(0.015625)"/>
      <path id="DejaVuSans-41" d="M 2188 4044 
L 1331 1722 
L 3047 1722 
L 2188 4044 
z
M 1831 4666 
L 2547 4666 
L 4325 0 
L 3669 0 
L 3244 1197 
L 1141 1197 
L 716 0 
L 50 0 
L 1831 4666 
z
" transform="scale(0.015625)"/>
     </defs>
     <use xlink:href="#DejaVuSans-31"/>
     <use xlink:href="#DejaVuSans-44" x="63.623047"/>
     <use xlink:href="#DejaVuSans-20" x="140.625"/>
     <use xlink:href="#DejaVuSans-44" x="172.412109"/>
     <use xlink:href="#DejaVuSans-65" x="249.414062"/>
     <use xlink:href="#DejaVuSans-6e" x="310.9375"/>
     <use xlink:href="#DejaVuSans-73" x="374.316406"/>
     <use xlink:href="#DejaVuSans-69" x="426.416016"/>
     <use xlink:href="#DejaVuSans-74" x="454.199219"/>
     <use xlink:href="#DejaVuSans-79" x="493.408203"/>
     <use xlink:href="#DejaVuSans-20" x="552.587891"/>
     <use xlink:href="#DejaVuSans-50" x="584.375"/>
     <use xlink:href="#DejaVuSans-72" x="642.927734"/>
     <use xlink:href="#DejaVuSans-6f" x="681.791016"/>
     <use xlink:href="#DejaVuSans-66" x="742.972656"/>
     <use xlink:href="#DejaVuSans-69" x="778.177734"/>
     <use xlink:href="#DejaVuSans-6c" x="805.960938"/>
     <use xlink:href="#DejaVuSans-65" x="833.744141"/>
     <use xlink:href="#DejaVuSans-20" x="895.267578"/>
     <use xlink:href="#DejaVuSans-28" x="927.054688"/>
     <use xlink:href="#DejaVuSans-58" x="966.068359"/>
     <use xlink:href="#DejaVuSans-2d" x="1029.574219"/>
     <use xlink:href="#DejaVuSans-41" x="1063.408203"/>
     <use xlink:href="#DejaVuSans-78" x="1131.816406"/>
     <use xlink:href="#DejaVuSans-69" x="1190.996094"/>
     <use xlink:href="#DejaVuSans-73" x="1218.779297"/>
     <use xlink:href="#DejaVuSans-29" x="1270.878906"/>
    </g>
   </g>
  </g>
 </g>
 <defs>
  <clipPath id="pb37ab117b0">
   <rect x="90" y="34.56" width="558" height="221.76"/>
  </clipPath>
 </defs>
</svg>
