<?xml version="1.0" encoding="utf-8" standalone="no"?>
<!DOCTYPE svg PUBLIC "-//W3C//DTD SVG 1.1//EN"
  "http://www.w3.org/Graphics/SVG/1.1/DTD/svg11.dtd">
<svg xmlns:xlink="http://www.w3.org/1999/xlink" width="1008pt" height="288pt" viewBox="0 0 1008 288" xmlns="http://www.w3.org/2000/svg" version="1.1">
 <metadata>
  <rdf:RDF xmlns:dc="http://purl.org/dc/elements/1.1/" xmlns:cc="http://creativecommons.org/ns#" xmlns:rdf="http://www.w3.org/1999/02/22-rdf-syntax-ns#">
   <cc:Work>
    <dc:type rdf:resource="http://purl.org/dc/dcmitype/StillImage"/>
    <dc:date>2024-08-30T19:46:55.013840</dc:date>
    <dc:format>image/svg+xml</dc:format>
    <dc:creator>
     <cc:Agent>
      <dc:title>Matplotlib v3.9.2, https://matplotlib.org/</dc:title>
     </cc:Agent>
    </dc:creator>
   </cc:Work>
  </rdf:RDF>
 </metadata>
 <defs>
  <style type="text/css">*{stroke-linejoin: round; stroke-linecap: butt}</style>
 </defs>
 <g id="figure_1">
  <g id="patch_1">
   <path d="M 0 288 
L 1008 288 
L 1008 0 
L 0 0 
L 0 288 
z
" style="fill: none"/>
  </g>
  <g id="axes_1">
   <g id="patch_2">
    <path d="M 126 256.32 
L 907.2 256.32 
L 907.2 34.56 
L 126 34.56 
L 126 256.32 
z
" style="fill: none"/>
   </g>
   <g id="matplotlib.axis_1">
    <g id="xtick_1">
     <g id="line2d_1">
      <path d="M 161.509091 256.32 
L 161.509091 34.56 
" clip-path="url(#p7425089218)" style="fill: none; stroke: #b0b0b0; stroke-width: 0.8; stroke-linecap: square"/>
     </g>
     <g id="line2d_2">
      <defs>
       <path id="m5881857761" d="M 0 0 
L 0 3.5 
" style="stroke: #000000; stroke-width: 0.8"/>
      </defs>
      <g>
       <use xlink:href="#m5881857761" x="161.509091" y="256.32" style="stroke: #000000; stroke-width: 0.8"/>
      </g>
     </g>
     <g id="text_1">
      <!-- 0 -->
      <g transform="translate(156.419091 275.4775) scale(0.16 -0.16)">
       <defs>
        <path id="DejaVuSans-30" d="M 2034 4250 
Q 1547 4250 1301 3770 
Q 1056 3291 1056 2328 
Q 1056 1369 1301 889 
Q 1547 409 2034 409 
Q 2525 409 2770 889 
Q 3016 1369 3016 2328 
Q 3016 3291 2770 3770 
Q 2525 4250 2034 4250 
z
M 2034 4750 
Q 2819 4750 3233 4129 
Q 3647 3509 3647 2328 
Q 3647 1150 3233 529 
Q 2819 -91 2034 -91 
Q 1250 -91 836 529 
Q 422 1150 422 2328 
Q 422 3509 836 4129 
Q 1250 4750 2034 4750 
z
" transform="scale(0.015625)"/>
       </defs>
       <use xlink:href="#DejaVuSans-30"/>
      </g>
     </g>
    </g>
    <g id="xtick_2">
     <g id="line2d_3">
      <path d="M 300.352066 256.32 
L 300.352066 34.56 
" clip-path="url(#p7425089218)" style="fill: none; stroke: #b0b0b0; stroke-width: 0.8; stroke-linecap: square"/>
     </g>
     <g id="line2d_4">
      <g>
       <use xlink:href="#m5881857761" x="300.352066" y="256.32" style="stroke: #000000; stroke-width: 0.8"/>
      </g>
     </g>
     <g id="text_2">
      <!-- 200 -->
      <g transform="translate(285.082066 275.4775) scale(0.16 -0.16)">
       <defs>
        <path id="DejaVuSans-32" d="M 1228 531 
L 3431 531 
L 3431 0 
L 469 0 
L 469 531 
Q 828 903 1448 1529 
Q 2069 2156 2228 2338 
Q 2531 2678 2651 2914 
Q 2772 3150 2772 3378 
Q 2772 3750 2511 3984 
Q 2250 4219 1831 4219 
Q 1534 4219 1204 4116 
Q 875 4013 500 3803 
L 500 4441 
Q 881 4594 1212 4672 
Q 1544 4750 1819 4750 
Q 2544 4750 2975 4387 
Q 3406 4025 3406 3419 
Q 3406 3131 3298 2873 
Q 3191 2616 2906 2266 
Q 2828 2175 2409 1742 
Q 1991 1309 1228 531 
z
" transform="scale(0.015625)"/>
       </defs>
       <use xlink:href="#DejaVuSans-32"/>
       <use xlink:href="#DejaVuSans-30" x="63.623047"/>
       <use xlink:href="#DejaVuSans-30" x="127.246094"/>
      </g>
     </g>
    </g>
    <g id="xtick_3">
     <g id="line2d_5">
      <path d="M 439.195041 256.32 
L 439.195041 34.56 
" clip-path="url(#p7425089218)" style="fill: none; stroke: #b0b0b0; stroke-width: 0.8; stroke-linecap: square"/>
     </g>
     <g id="line2d_6">
      <g>
       <use xlink:href="#m5881857761" x="439.195041" y="256.32" style="stroke: #000000; stroke-width: 0.8"/>
      </g>
     </g>
     <g id="text_3">
      <!-- 400 -->
      <g transform="translate(423.925041 275.4775) scale(0.16 -0.16)">
       <defs>
        <path id="DejaVuSans-34" d="M 2419 4116 
L 825 1625 
L 2419 1625 
L 2419 4116 
z
M 2253 4666 
L 3047 4666 
L 3047 1625 
L 3713 1625 
L 3713 1100 
L 3047 1100 
L 3047 0 
L 2419 0 
L 2419 1100 
L 313 1100 
L 313 1709 
L 2253 4666 
z
" transform="scale(0.015625)"/>
       </defs>
       <use xlink:href="#DejaVuSans-34"/>
       <use xlink:href="#DejaVuSans-30" x="63.623047"/>
       <use xlink:href="#DejaVuSans-30" x="127.246094"/>
      </g>
     </g>
    </g>
    <g id="xtick_4">
     <g id="line2d_7">
      <path d="M 578.038017 256.32 
L 578.038017 34.56 
" clip-path="url(#p7425089218)" style="fill: none; stroke: #b0b0b0; stroke-width: 0.8; stroke-linecap: square"/>
     </g>
     <g id="line2d_8">
      <g>
       <use xlink:href="#m5881857761" x="578.038017" y="256.32" style="stroke: #000000; stroke-width: 0.8"/>
      </g>
     </g>
     <g id="text_4">
      <!-- 600 -->
      <g transform="translate(562.768017 275.4775) scale(0.16 -0.16)">
       <defs>
        <path id="DejaVuSans-36" d="M 2113 2584 
Q 1688 2584 1439 2293 
Q 1191 2003 1191 1497 
Q 1191 994 1439 701 
Q 1688 409 2113 409 
Q 2538 409 2786 701 
Q 3034 994 3034 1497 
Q 3034 2003 2786 2293 
Q 2538 2584 2113 2584 
z
M 3366 4563 
L 3366 3988 
Q 3128 4100 2886 4159 
Q 2644 4219 2406 4219 
Q 1781 4219 1451 3797 
Q 1122 3375 1075 2522 
Q 1259 2794 1537 2939 
Q 1816 3084 2150 3084 
Q 2853 3084 3261 2657 
Q 3669 2231 3669 1497 
Q 3669 778 3244 343 
Q 2819 -91 2113 -91 
Q 1303 -91 875 529 
Q 447 1150 447 2328 
Q 447 3434 972 4092 
Q 1497 4750 2381 4750 
Q 2619 4750 2861 4703 
Q 3103 4656 3366 4563 
z
" transform="scale(0.015625)"/>
       </defs>
       <use xlink:href="#DejaVuSans-36"/>
       <use xlink:href="#DejaVuSans-30" x="63.623047"/>
       <use xlink:href="#DejaVuSans-30" x="127.246094"/>
      </g>
     </g>
    </g>
    <g id="xtick_5">
     <g id="line2d_9">
      <path d="M 716.880992 256.32 
L 716.880992 34.56 
" clip-path="url(#p7425089218)" style="fill: none; stroke: #b0b0b0; stroke-width: 0.8; stroke-linecap: square"/>
     </g>
     <g id="line2d_10">
      <g>
       <use xlink:href="#m5881857761" x="716.880992" y="256.32" style="stroke: #000000; stroke-width: 0.8"/>
      </g>
     </g>
     <g id="text_5">
      <!-- 800 -->
      <g transform="translate(701.610992 275.4775) scale(0.16 -0.16)">
       <defs>
        <path id="DejaVuSans-38" d="M 2034 2216 
Q 1584 2216 1326 1975 
Q 1069 1734 1069 1313 
Q 1069 891 1326 650 
Q 1584 409 2034 409 
Q 2484 409 2743 651 
Q 3003 894 3003 1313 
Q 3003 1734 2745 1975 
Q 2488 2216 2034 2216 
z
M 1403 2484 
Q 997 2584 770 2862 
Q 544 3141 544 3541 
Q 544 4100 942 4425 
Q 1341 4750 2034 4750 
Q 2731 4750 3128 4425 
Q 3525 4100 3525 3541 
Q 3525 3141 3298 2862 
Q 3072 2584 2669 2484 
Q 3125 2378 3379 2068 
Q 3634 1759 3634 1313 
Q 3634 634 3220 271 
Q 2806 -91 2034 -91 
Q 1263 -91 848 271 
Q 434 634 434 1313 
Q 434 1759 690 2068 
Q 947 2378 1403 2484 
z
M 1172 3481 
Q 1172 3119 1398 2916 
Q 1625 2713 2034 2713 
Q 2441 2713 2670 2916 
Q 2900 3119 2900 3481 
Q 2900 3844 2670 4047 
Q 2441 4250 2034 4250 
Q 1625 4250 1398 4047 
Q 1172 3844 1172 3481 
z
" transform="scale(0.015625)"/>
       </defs>
       <use xlink:href="#DejaVuSans-38"/>
       <use xlink:href="#DejaVuSans-30" x="63.623047"/>
       <use xlink:href="#DejaVuSans-30" x="127.246094"/>
      </g>
     </g>
    </g>
    <g id="xtick_6">
     <g id="line2d_11">
      <path d="M 855.723967 256.32 
L 855.723967 34.56 
" clip-path="url(#p7425089218)" style="fill: none; stroke: #b0b0b0; stroke-width: 0.8; stroke-linecap: square"/>
     </g>
     <g id="line2d_12">
      <g>
       <use xlink:href="#m5881857761" x="855.723967" y="256.32" style="stroke: #000000; stroke-width: 0.8"/>
      </g>
     </g>
     <g id="text_6">
      <!-- 1000 -->
      <g transform="translate(835.363967 275.4775) scale(0.16 -0.16)">
       <defs>
        <path id="DejaVuSans-31" d="M 794 531 
L 1825 531 
L 1825 4091 
L 703 3866 
L 703 4441 
L 1819 4666 
L 2450 4666 
L 2450 531 
L 3481 531 
L 3481 0 
L 794 0 
L 794 531 
z
" transform="scale(0.015625)"/>
       </defs>
       <use xlink:href="#DejaVuSans-31"/>
       <use xlink:href="#DejaVuSans-30" x="63.623047"/>
       <use xlink:href="#DejaVuSans-30" x="127.246094"/>
       <use xlink:href="#DejaVuSans-30" x="190.869141"/>
      </g>
     </g>
    </g>
    <g id="text_7">
     <!-- X (pixels) -->
     <g transform="translate(479.23625 294.9625) scale(0.16 -0.16)">
      <defs>
       <path id="DejaVuSans-58" d="M 403 4666 
L 1081 4666 
L 2241 2931 
L 3406 4666 
L 4084 4666 
L 2584 2425 
L 4184 0 
L 3506 0 
L 2194 1984 
L 872 0 
L 191 0 
L 1856 2491 
L 403 4666 
z
" transform="scale(0.015625)"/>
       <path id="DejaVuSans-20" transform="scale(0.015625)"/>
       <path id="DejaVuSans-28" d="M 1984 4856 
Q 1566 4138 1362 3434 
Q 1159 2731 1159 2009 
Q 1159 1288 1364 580 
Q 1569 -128 1984 -844 
L 1484 -844 
Q 1016 -109 783 600 
Q 550 1309 550 2009 
Q 550 2706 781 3412 
Q 1013 4119 1484 4856 
L 1984 4856 
z
" transform="scale(0.015625)"/>
       <path id="DejaVuSans-70" d="M 1159 525 
L 1159 -1331 
L 581 -1331 
L 581 3500 
L 1159 3500 
L 1159 2969 
Q 1341 3281 1617 3432 
Q 1894 3584 2278 3584 
Q 2916 3584 3314 3078 
Q 3713 2572 3713 1747 
Q 3713 922 3314 415 
Q 2916 -91 2278 -91 
Q 1894 -91 1617 61 
Q 1341 213 1159 525 
z
M 3116 1747 
Q 3116 2381 2855 2742 
Q 2594 3103 2138 3103 
Q 1681 3103 1420 2742 
Q 1159 2381 1159 1747 
Q 1159 1113 1420 752 
Q 1681 391 2138 391 
Q 2594 391 2855 752 
Q 3116 1113 3116 1747 
z
" transform="scale(0.015625)"/>
       <path id="DejaVuSans-69" d="M 603 3500 
L 1178 3500 
L 1178 0 
L 603 0 
L 603 3500 
z
M 603 4863 
L 1178 4863 
L 1178 4134 
L 603 4134 
L 603 4863 
z
" transform="scale(0.015625)"/>
       <path id="DejaVuSans-78" d="M 3513 3500 
L 2247 1797 
L 3578 0 
L 2900 0 
L 1881 1375 
L 863 0 
L 184 0 
L 1544 1831 
L 300 3500 
L 978 3500 
L 1906 2253 
L 2834 3500 
L 3513 3500 
z
" transform="scale(0.015625)"/>
       <path id="DejaVuSans-65" d="M 3597 1894 
L 3597 1613 
L 953 1613 
Q 991 1019 1311 708 
Q 1631 397 2203 397 
Q 2534 397 2845 478 
Q 3156 559 3463 722 
L 3463 178 
Q 3153 47 2828 -22 
Q 2503 -91 2169 -91 
Q 1331 -91 842 396 
Q 353 884 353 1716 
Q 353 2575 817 3079 
Q 1281 3584 2069 3584 
Q 2775 3584 3186 3129 
Q 3597 2675 3597 1894 
z
M 3022 2063 
Q 3016 2534 2758 2815 
Q 2500 3097 2075 3097 
Q 1594 3097 1305 2825 
Q 1016 2553 972 2059 
L 3022 2063 
z
" transform="scale(0.015625)"/>
       <path id="DejaVuSans-6c" d="M 603 4863 
L 1178 4863 
L 1178 0 
L 603 0 
L 603 4863 
z
" transform="scale(0.015625)"/>
       <path id="DejaVuSans-73" d="M 2834 3397 
L 2834 2853 
Q 2591 2978 2328 3040 
Q 2066 3103 1784 3103 
Q 1356 3103 1142 2972 
Q 928 2841 928 2578 
Q 928 2378 1081 2264 
Q 1234 2150 1697 2047 
L 1894 2003 
Q 2506 1872 2764 1633 
Q 3022 1394 3022 966 
Q 3022 478 2636 193 
Q 2250 -91 1575 -91 
Q 1294 -91 989 -36 
Q 684 19 347 128 
L 347 722 
Q 666 556 975 473 
Q 1284 391 1588 391 
Q 1994 391 2212 530 
Q 2431 669 2431 922 
Q 2431 1156 2273 1281 
Q 2116 1406 1581 1522 
L 1381 1569 
Q 847 1681 609 1914 
Q 372 2147 372 2553 
Q 372 3047 722 3315 
Q 1072 3584 1716 3584 
Q 2034 3584 2315 3537 
Q 2597 3491 2834 3397 
z
" transform="scale(0.015625)"/>
       <path id="DejaVuSans-29" d="M 513 4856 
L 1013 4856 
Q 1481 4119 1714 3412 
Q 1947 2706 1947 2009 
Q 1947 1309 1714 600 
Q 1481 -109 1013 -844 
L 513 -844 
Q 928 -128 1133 580 
Q 1338 1288 1338 2009 
Q 1338 2731 1133 3434 
Q 928 4138 513 4856 
z
" transform="scale(0.015625)"/>
      </defs>
      <use xlink:href="#DejaVuSans-58"/>
      <use xlink:href="#DejaVuSans-20" x="68.505859"/>
      <use xlink:href="#DejaVuSans-28" x="100.292969"/>
      <use xlink:href="#DejaVuSans-70" x="139.306641"/>
      <use xlink:href="#DejaVuSans-69" x="202.783203"/>
      <use xlink:href="#DejaVuSans-78" x="230.566406"/>
      <use xlink:href="#DejaVuSans-65" x="286.621094"/>
      <use xlink:href="#DejaVuSans-6c" x="348.144531"/>
      <use xlink:href="#DejaVuSans-73" x="375.927734"/>
      <use xlink:href="#DejaVuSans-29" x="428.027344"/>
     </g>
    </g>
   </g>
   <g id="matplotlib.axis_2">
    <g id="ytick_1">
     <g id="line2d_13">
      <path d="M 126 238.31314 
L 907.2 238.31314 
" clip-path="url(#p7425089218)" style="fill: none; stroke: #b0b0b0; stroke-width: 0.8; stroke-linecap: square"/>
     </g>
     <g id="line2d_14">
      <defs>
       <path id="mb7b8d12e2d" d="M 0 0 
L 3.5 0 
" style="stroke: #000000; stroke-width: 0.8"/>
      </defs>
      <g>
       <use xlink:href="#mb7b8d12e2d" x="907.2" y="238.31314" style="stroke: #000000; stroke-width: 0.8"/>
      </g>
     </g>
     <g id="text_8">
      <!-- 0.2 -->
      <g transform="translate(914.2 244.39189) scale(0.16 -0.16)">
       <defs>
        <path id="DejaVuSans-2e" d="M 684 794 
L 1344 794 
L 1344 0 
L 684 0 
L 684 794 
z
" transform="scale(0.015625)"/>
       </defs>
       <use xlink:href="#DejaVuSans-30"/>
       <use xlink:href="#DejaVuSans-2e" x="63.623047"/>
       <use xlink:href="#DejaVuSans-32" x="95.410156"/>
      </g>
     </g>
    </g>
    <g id="ytick_2">
     <g id="line2d_15">
      <path d="M 126 188.415605 
L 907.2 188.415605 
" clip-path="url(#p7425089218)" style="fill: none; stroke: #b0b0b0; stroke-width: 0.8; stroke-linecap: square"/>
     </g>
     <g id="line2d_16">
      <g>
       <use xlink:href="#mb7b8d12e2d" x="907.2" y="188.415605" style="stroke: #000000; stroke-width: 0.8"/>
      </g>
     </g>
     <g id="text_9">
      <!-- 0.4 -->
      <g transform="translate(914.2 194.494355) scale(0.16 -0.16)">
       <use xlink:href="#DejaVuSans-30"/>
       <use xlink:href="#DejaVuSans-2e" x="63.623047"/>
       <use xlink:href="#DejaVuSans-34" x="95.410156"/>
      </g>
     </g>
    </g>
    <g id="ytick_3">
     <g id="line2d_17">
      <path d="M 126 138.518069 
L 907.2 138.518069 
" clip-path="url(#p7425089218)" style="fill: none; stroke: #b0b0b0; stroke-width: 0.8; stroke-linecap: square"/>
     </g>
     <g id="line2d_18">
      <g>
       <use xlink:href="#mb7b8d12e2d" x="907.2" y="138.518069" style="stroke: #000000; stroke-width: 0.8"/>
      </g>
     </g>
     <g id="text_10">
      <!-- 0.6 -->
      <g transform="translate(914.2 144.596819) scale(0.16 -0.16)">
       <use xlink:href="#DejaVuSans-30"/>
       <use xlink:href="#DejaVuSans-2e" x="63.623047"/>
       <use xlink:href="#DejaVuSans-36" x="95.410156"/>
      </g>
     </g>
    </g>
    <g id="ytick_4">
     <g id="line2d_19">
      <path d="M 126 88.620533 
L 907.2 88.620533 
" clip-path="url(#p7425089218)" style="fill: none; stroke: #b0b0b0; stroke-width: 0.8; stroke-linecap: square"/>
     </g>
     <g id="line2d_20">
      <g>
       <use xlink:href="#mb7b8d12e2d" x="907.2" y="88.620533" style="stroke: #000000; stroke-width: 0.8"/>
      </g>
     </g>
     <g id="text_11">
      <!-- 0.8 -->
      <g transform="translate(914.2 94.699283) scale(0.16 -0.16)">
       <use xlink:href="#DejaVuSans-30"/>
       <use xlink:href="#DejaVuSans-2e" x="63.623047"/>
       <use xlink:href="#DejaVuSans-38" x="95.410156"/>
      </g>
     </g>
    </g>
    <g id="ytick_5">
     <g id="line2d_21">
      <path d="M 126 38.722998 
L 907.2 38.722998 
" clip-path="url(#p7425089218)" style="fill: none; stroke: #b0b0b0; stroke-width: 0.8; stroke-linecap: square"/>
     </g>
     <g id="line2d_22">
      <g>
       <use xlink:href="#mb7b8d12e2d" x="907.2" y="38.722998" style="stroke: #000000; stroke-width: 0.8"/>
      </g>
     </g>
     <g id="text_12">
      <!-- 1.0 -->
      <g transform="translate(914.2 44.801748) scale(0.16 -0.16)">
       <use xlink:href="#DejaVuSans-31"/>
       <use xlink:href="#DejaVuSans-2e" x="63.623047"/>
       <use xlink:href="#DejaVuSans-30" x="95.410156"/>
      </g>
     </g>
    </g>
    <g id="text_13">
     <!-- Energy (Joules) -->
     <g transform="translate(957.322188 213.426562) rotate(-90) scale(0.18 -0.18)">
      <defs>
       <path id="DejaVuSans-45" d="M 628 4666 
L 3578 4666 
L 3578 4134 
L 1259 4134 
L 1259 2753 
L 3481 2753 
L 3481 2222 
L 1259 2222 
L 1259 531 
L 3634 531 
L 3634 0 
L 628 0 
L 628 4666 
z
" transform="scale(0.015625)"/>
       <path id="DejaVuSans-6e" d="M 3513 2113 
L 3513 0 
L 2938 0 
L 2938 2094 
Q 2938 2591 2744 2837 
Q 2550 3084 2163 3084 
Q 1697 3084 1428 2787 
Q 1159 2491 1159 1978 
L 1159 0 
L 581 0 
L 581 3500 
L 1159 3500 
L 1159 2956 
Q 1366 3272 1645 3428 
Q 1925 3584 2291 3584 
Q 2894 3584 3203 3211 
Q 3513 2838 3513 2113 
z
" transform="scale(0.015625)"/>
       <path id="DejaVuSans-72" d="M 2631 2963 
Q 2534 3019 2420 3045 
Q 2306 3072 2169 3072 
Q 1681 3072 1420 2755 
Q 1159 2438 1159 1844 
L 1159 0 
L 581 0 
L 581 3500 
L 1159 3500 
L 1159 2956 
Q 1341 3275 1631 3429 
Q 1922 3584 2338 3584 
Q 2397 3584 2469 3576 
Q 2541 3569 2628 3553 
L 2631 2963 
z
" transform="scale(0.015625)"/>
       <path id="DejaVuSans-67" d="M 2906 1791 
Q 2906 2416 2648 2759 
Q 2391 3103 1925 3103 
Q 1463 3103 1205 2759 
Q 947 2416 947 1791 
Q 947 1169 1205 825 
Q 1463 481 1925 481 
Q 2391 481 2648 825 
Q 2906 1169 2906 1791 
z
M 3481 434 
Q 3481 -459 3084 -895 
Q 2688 -1331 1869 -1331 
Q 1566 -1331 1297 -1286 
Q 1028 -1241 775 -1147 
L 775 -588 
Q 1028 -725 1275 -790 
Q 1522 -856 1778 -856 
Q 2344 -856 2625 -561 
Q 2906 -266 2906 331 
L 2906 616 
Q 2728 306 2450 153 
Q 2172 0 1784 0 
Q 1141 0 747 490 
Q 353 981 353 1791 
Q 353 2603 747 3093 
Q 1141 3584 1784 3584 
Q 2172 3584 2450 3431 
Q 2728 3278 2906 2969 
L 2906 3500 
L 3481 3500 
L 3481 434 
z
" transform="scale(0.015625)"/>
       <path id="DejaVuSans-79" d="M 2059 -325 
Q 1816 -950 1584 -1140 
Q 1353 -1331 966 -1331 
L 506 -1331 
L 506 -850 
L 844 -850 
Q 1081 -850 1212 -737 
Q 1344 -625 1503 -206 
L 1606 56 
L 191 3500 
L 800 3500 
L 1894 763 
L 2988 3500 
L 3597 3500 
L 2059 -325 
z
" transform="scale(0.015625)"/>
       <path id="DejaVuSans-4a" d="M 628 4666 
L 1259 4666 
L 1259 325 
Q 1259 -519 939 -900 
Q 619 -1281 -91 -1281 
L -331 -1281 
L -331 -750 
L -134 -750 
Q 284 -750 456 -515 
Q 628 -281 628 325 
L 628 4666 
z
" transform="scale(0.015625)"/>
       <path id="DejaVuSans-6f" d="M 1959 3097 
Q 1497 3097 1228 2736 
Q 959 2375 959 1747 
Q 959 1119 1226 758 
Q 1494 397 1959 397 
Q 2419 397 2687 759 
Q 2956 1122 2956 1747 
Q 2956 2369 2687 2733 
Q 2419 3097 1959 3097 
z
M 1959 3584 
Q 2709 3584 3137 3096 
Q 3566 2609 3566 1747 
Q 3566 888 3137 398 
Q 2709 -91 1959 -91 
Q 1206 -91 779 398 
Q 353 888 353 1747 
Q 353 2609 779 3096 
Q 1206 3584 1959 3584 
z
" transform="scale(0.015625)"/>
       <path id="DejaVuSans-75" d="M 544 1381 
L 544 3500 
L 1119 3500 
L 1119 1403 
Q 1119 906 1312 657 
Q 1506 409 1894 409 
Q 2359 409 2629 706 
Q 2900 1003 2900 1516 
L 2900 3500 
L 3475 3500 
L 3475 0 
L 2900 0 
L 2900 538 
Q 2691 219 2414 64 
Q 2138 -91 1772 -91 
Q 1169 -91 856 284 
Q 544 659 544 1381 
z
M 1991 3584 
L 1991 3584 
z
" transform="scale(0.015625)"/>
      </defs>
      <use xlink:href="#DejaVuSans-45"/>
      <use xlink:href="#DejaVuSans-6e" x="63.183594"/>
      <use xlink:href="#DejaVuSans-65" x="126.5625"/>
      <use xlink:href="#DejaVuSans-72" x="188.085938"/>
      <use xlink:href="#DejaVuSans-67" x="227.449219"/>
      <use xlink:href="#DejaVuSans-79" x="290.925781"/>
      <use xlink:href="#DejaVuSans-20" x="350.105469"/>
      <use xlink:href="#DejaVuSans-28" x="381.892578"/>
      <use xlink:href="#DejaVuSans-4a" x="420.90625"/>
      <use xlink:href="#DejaVuSans-6f" x="450.398438"/>
      <use xlink:href="#DejaVuSans-75" x="511.580078"/>
      <use xlink:href="#DejaVuSans-6c" x="574.958984"/>
      <use xlink:href="#DejaVuSans-65" x="602.742188"/>
      <use xlink:href="#DejaVuSans-73" x="664.265625"/>
      <use xlink:href="#DejaVuSans-29" x="716.365234"/>
     </g>
    </g>
    <g id="text_14">
     <!-- 1e−11 -->
     <g transform="translate(873.579688 31.56) scale(0.1 -0.1)">
      <defs>
       <path id="DejaVuSans-2212" d="M 678 2272 
L 4684 2272 
L 4684 1741 
L 678 1741 
L 678 2272 
z
" transform="scale(0.015625)"/>
      </defs>
      <use xlink:href="#DejaVuSans-31"/>
      <use xlink:href="#DejaVuSans-65" x="63.623047"/>
      <use xlink:href="#DejaVuSans-2212" x="125.146484"/>
      <use xlink:href="#DejaVuSans-31" x="208.935547"/>
      <use xlink:href="#DejaVuSans-31" x="272.558594"/>
     </g>
    </g>
   </g>
   <g id="line2d_23">
    <path d="M 161.509091 240.03397 
L 162.203306 243.872752 
L 162.897521 244.000711 
L 163.591736 240.09795 
L 164.980165 242.785097 
L 165.67438 240.993666 
L 166.368595 241.313564 
L 167.06281 240.609787 
L 167.757025 244.384589 
L 168.45124 242.913056 
L 169.145455 240.801726 
L 169.839669 244.960406 
L 170.533884 238.114579 
L 171.228099 242.593158 
L 171.922314 244.320609 
L 172.616529 242.849076 
L 173.310744 240.993666 
L 174.004959 239.778051 
L 174.699174 240.03397 
L 175.393388 239.842031 
L 176.087603 240.03397 
L 176.781818 244.000711 
L 177.476033 246.24 
L 178.170248 241.121625 
L 178.864463 238.882336 
L 179.558678 241.761422 
L 180.252893 242.401219 
L 180.947107 240.673767 
L 181.641322 240.993666 
L 182.335537 240.03397 
L 183.029752 243.616833 
L 183.723967 238.946315 
L 184.418182 240.993666 
L 185.112397 238.178559 
L 185.806612 237.730701 
L 186.500826 237.794681 
L 187.195041 237.730701 
L 187.889256 237.026925 
L 188.583471 236.898965 
L 189.277686 241.057645 
L 189.971901 241.313564 
L 190.666116 238.882336 
L 191.360331 237.98662 
L 192.054545 241.185605 
L 192.74876 240.865706 
L 193.442975 239.458153 
L 194.13719 240.225909 
L 194.831405 240.801726 
L 195.52562 239.394173 
L 196.219835 239.586112 
L 196.91405 237.602742 
L 197.608264 239.522133 
L 198.302479 245.216325 
L 198.996694 238.818356 
L 199.690909 239.202234 
L 200.385124 239.138255 
L 201.079339 241.825401 
L 201.773554 238.562437 
L 202.467769 240.417848 
L 203.161983 237.346823 
L 203.856198 237.538762 
L 204.550413 235.363453 
L 205.244628 236.771006 
L 205.938843 236.451108 
L 206.633058 236.898965 
L 207.327273 237.090904 
L 208.021488 237.474783 
L 208.715702 237.218864 
L 209.409917 235.043554 
L 210.104132 236.834986 
L 210.798347 239.906011 
L 211.492562 236.131209 
L 212.186777 239.458153 
L 212.880992 235.299473 
L 213.575207 236.323148 
L 214.269421 235.87529 
L 214.963636 234.915595 
L 215.657851 236.771006 
L 216.352066 237.858661 
L 217.046281 235.811311 
L 217.740496 239.330194 
L 218.434711 231.524672 
L 219.128926 238.434478 
L 219.82314 235.107534 
L 220.517355 236.323148 
L 221.21157 232.740286 
L 221.905785 236.451108 
L 222.6 235.043554 
L 223.294215 239.586112 
L 224.682645 235.619372 
L 225.37686 237.858661 
L 226.071074 235.107534 
L 226.765289 235.363453 
L 227.459504 235.491412 
L 228.153719 232.292428 
L 228.847934 236.515087 
L 229.542149 238.434478 
L 230.236364 235.171514 
L 230.930579 234.851615 
L 231.624793 232.804265 
L 232.319008 231.140793 
L 233.707438 235.87529 
L 234.401653 234.403758 
L 235.095868 231.652631 
L 235.790083 236.323148 
L 236.484298 234.723656 
L 237.178512 235.87529 
L 237.872727 236.195189 
L 238.566942 233.444062 
L 239.261157 234.467737 
L 239.955372 234.083859 
L 240.649587 235.491412 
L 241.343802 229.541301 
L 242.038017 231.652631 
L 242.732231 231.268753 
L 243.426446 232.804265 
L 244.120661 231.460692 
L 244.814876 231.012834 
L 245.509091 230.820895 
L 246.203306 231.84457 
L 246.897521 233.252123 
L 247.591736 228.453646 
L 248.28595 234.403758 
L 249.67438 230.053139 
L 250.368595 233.699981 
L 251.06281 234.659676 
L 251.757025 232.804265 
L 252.45124 228.901504 
L 253.145455 232.036509 
L 254.533884 230.948854 
L 255.228099 228.453646 
L 255.922314 229.605281 
L 256.616529 228.645586 
L 257.310744 229.221403 
L 258.004959 233.252123 
L 258.699174 231.268753 
L 259.393388 228.261707 
L 260.087603 232.548347 
L 260.781818 230.756915 
L 261.476033 228.197728 
L 262.170248 228.645586 
L 262.864463 229.669261 
L 263.558678 232.356407 
L 264.252893 229.8612 
L 264.947107 228.069768 
L 265.641322 227.74987 
L 266.335537 230.437017 
L 267.029752 230.245078 
L 267.723967 226.150378 
L 268.418182 229.221403 
L 269.112397 227.238032 
L 269.806612 231.268753 
L 270.500826 230.373037 
L 271.195041 229.669261 
L 271.889256 225.446601 
L 272.583471 228.581606 
L 273.277686 227.621911 
L 273.971901 228.709565 
L 274.666116 230.373037 
L 275.360331 225.7665 
L 276.054545 226.982114 
L 276.74876 227.238032 
L 277.442975 229.093443 
L 278.13719 224.806804 
L 278.831405 226.342317 
L 279.52562 227.302012 
L 280.219835 227.302012 
L 280.91405 226.214357 
L 281.608264 221.54384 
L 282.302479 229.029464 
L 282.996694 228.005789 
L 283.690909 224.678845 
L 285.079339 227.174053 
L 285.773554 226.918134 
L 286.467769 223.975068 
L 287.161983 227.877829 
L 287.856198 224.103028 
L 288.550413 225.510581 
L 289.244628 224.294967 
L 289.938843 228.325687 
L 290.633058 226.086398 
L 291.327273 223.399251 
L 292.021488 221.991698 
L 292.715702 226.214357 
L 293.409917 223.975068 
L 294.104132 222.503535 
L 294.798347 227.238032 
L 295.492562 229.349362 
L 296.186777 223.143332 
L 296.880992 226.150378 
L 297.575207 223.911089 
L 298.269421 224.486906 
L 298.963636 223.271292 
L 299.657851 221.54384 
L 300.352066 220.264246 
L 301.046281 224.614865 
L 301.740496 223.463231 
L 302.434711 219.112612 
L 303.128926 220.072307 
L 303.82314 221.799759 
L 304.517355 221.863738 
L 305.21157 223.65517 
L 306.6 219.43251 
L 307.294215 221.60782 
L 307.98843 219.368531 
L 308.682645 217.833018 
L 309.37686 220.968023 
L 310.071074 217.769038 
L 310.765289 219.368531 
L 311.459504 218.216896 
L 312.153719 218.472815 
L 312.847934 217.960977 
L 313.542149 218.408835 
L 314.236364 218.536795 
L 314.930579 217.321181 
L 315.624793 219.624449 
L 316.319008 215.657709 
L 317.013223 217.51312 
L 317.707438 214.761993 
L 318.401653 217.769038 
L 319.095868 216.105566 
L 319.790083 219.56047 
L 320.484298 220.712104 
L 321.178512 218.984652 
L 321.872727 219.048632 
L 322.566942 218.344856 
L 323.261157 215.785668 
L 323.955372 216.169546 
L 324.649587 218.408835 
L 325.343802 218.408835 
L 326.038017 219.112612 
L 326.732231 216.105566 
L 327.426446 216.425465 
L 328.120661 218.024957 
L 328.814876 219.112612 
L 329.509091 214.378115 
L 330.203306 216.617404 
L 330.897521 215.721688 
L 331.591736 215.593729 
L 332.28595 216.809343 
L 332.980165 215.145871 
L 333.67438 214.506074 
L 334.368595 214.506074 
L 335.06281 211.17913 
L 335.757025 211.30709 
L 336.45124 214.953932 
L 337.145455 210.603313 
L 337.839669 212.522704 
L 339.228099 209.19576 
L 339.922314 211.051171 
L 341.310744 213.546379 
L 342.004959 209.963516 
L 342.699174 209.25974 
L 343.393388 209.003821 
L 344.087603 209.323719 
L 344.781818 212.906582 
L 345.476033 213.994237 
L 346.170248 205.484938 
L 346.864463 210.923212 
L 347.558678 211.946887 
L 348.252893 210.411374 
L 348.947107 206.188715 
L 349.641322 212.138826 
L 350.335537 205.932796 
L 351.029752 212.842602 
L 351.723967 206.828512 
L 352.418182 208.236065 
L 353.112397 209.963516 
L 354.500826 206.444633 
L 355.195041 206.700552 
L 355.889256 205.804837 
L 356.583471 204.205344 
L 357.277686 208.683923 
L 357.971901 209.771577 
L 358.666116 208.300044 
L 359.360331 210.091476 
L 360.054545 202.477893 
L 360.74876 205.10106 
L 361.442975 200.558502 
L 362.13719 204.333304 
L 362.831405 206.252694 
L 363.52562 209.835557 
L 364.219835 204.461263 
L 364.91405 208.811882 
L 365.608264 201.902076 
L 366.302479 207.852187 
L 366.996694 204.333304 
L 367.690909 204.077385 
L 368.385124 202.477893 
L 369.079339 205.03708 
L 369.773554 205.548918 
L 370.467769 201.582177 
L 371.161983 205.356979 
L 371.856198 202.797791 
L 372.550413 202.733811 
L 373.244628 198.255233 
L 373.938843 201.966055 
L 374.633058 203.949426 
L 375.327273 202.733811 
L 376.021488 203.757487 
L 376.715702 200.430543 
L 377.409917 199.02299 
L 378.104132 200.110644 
L 378.798347 202.030035 
L 379.492562 200.430543 
L 380.186777 196.015944 
L 380.880992 200.94238 
L 381.575207 204.589222 
L 382.269421 198.575132 
L 382.963636 197.039619 
L 383.657851 197.103599 
L 384.352066 195.248188 
L 385.046281 199.406868 
L 385.740496 199.342888 
L 386.434711 197.039619 
L 387.128926 197.615436 
L 387.82314 196.975639 
L 388.517355 196.84768 
L 389.21157 197.679416 
L 389.905785 196.719721 
L 390.6 198.703091 
L 391.98843 193.904614 
L 392.682645 196.143904 
L 393.37686 186.994808 
L 394.071074 195.312168 
L 394.765289 189.745935 
L 395.459504 192.177163 
L 396.153719 193.264818 
L 396.847934 187.890524 
L 397.542149 191.153488 
L 398.236364 192.241142 
L 398.930579 190.513691 
L 399.624793 196.015944 
L 400.319008 191.473386 
L 401.013223 194.480432 
L 401.707438 191.601346 
L 402.401653 191.409407 
L 403.095868 189.106138 
L 403.790083 185.587255 
L 404.484298 189.553996 
L 405.178512 190.961549 
L 405.872727 188.018483 
L 406.566942 186.035113 
L 407.261157 189.490016 
L 407.955372 187.058788 
L 408.649587 184.051742 
L 409.343802 183.923783 
L 410.038017 186.802869 
L 410.732231 189.106138 
L 412.120661 183.603884 
L 412.814876 184.051742 
L 413.509091 189.937874 
L 414.203306 183.347966 
L 414.897521 182.772149 
L 415.591736 184.179702 
L 416.28595 178.229591 
L 416.980165 185.075417 
L 417.67438 185.843174 
L 418.368595 182.644189 
L 419.06281 175.350505 
L 419.757025 182.51623 
L 420.45124 181.300616 
L 421.145455 180.724798 
L 421.839669 181.236636 
L 422.533884 174.134891 
L 423.228099 175.926322 
L 423.922314 174.646728 
L 424.616529 175.158566 
L 425.310744 178.101631 
L 426.004959 178.997347 
L 426.699174 177.973672 
L 427.393388 178.933367 
L 428.087603 179.317245 
L 428.781818 178.485509 
L 429.476033 172.983256 
L 430.170248 175.094586 
L 430.864463 177.589794 
L 431.558678 175.670403 
L 432.252893 175.478464 
L 432.947107 174.646728 
L 433.641322 169.656312 
L 434.335537 170.424069 
L 435.029752 174.390809 
L 435.723967 172.471419 
L 436.418182 173.047236 
L 437.112397 172.2155 
L 437.806612 170.871926 
L 438.500826 171.959581 
L 439.195041 171.895601 
L 439.889256 172.663358 
L 440.583471 166.265389 
L 441.277686 168.504678 
L 441.971901 160.699156 
L 442.666116 170.16815 
L 443.360331 163.258343 
L 444.054545 167.544983 
L 445.442975 160.763136 
L 446.13719 168.312739 
L 446.831405 165.177734 
L 447.52562 164.537937 
L 448.219835 160.763136 
L 449.608264 161.338953 
L 450.302479 160.955075 
L 450.996694 162.490587 
L 451.690909 157.308232 
L 452.385124 160.315278 
L 453.079339 161.85079 
L 453.773554 163.002425 
L 454.467769 157.82007 
L 455.161983 158.075989 
L 455.856198 156.476496 
L 456.550413 154.237207 
L 457.244628 152.701695 
L 457.938843 156.796395 
L 458.633058 155.836699 
L 459.327273 155.516801 
L 460.021488 150.654345 
L 460.715702 156.220578 
L 462.104132 151.61404 
L 462.798347 147.967198 
L 463.492562 150.590365 
L 464.186777 151.038223 
L 464.880992 145.47199 
L 465.575207 147.199441 
L 466.269421 151.422101 
L 466.963636 145.791888 
L 467.657851 145.727909 
L 468.352066 149.63067 
L 469.046281 151.038223 
L 469.740496 147.967198 
L 470.434711 147.58332 
L 471.128926 139.649838 
L 471.82314 142.273005 
L 472.517355 141.633209 
L 473.21157 145.088112 
L 473.905785 140.225655 
L 474.6 140.609533 
L 475.294215 140.673513 
L 475.98843 139.26596 
L 476.682645 142.528924 
L 477.37686 143.744538 
L 478.071074 136.642793 
L 478.765289 138.114326 
L 479.459504 138.434224 
L 480.153719 129.796966 
L 481.542149 135.299219 
L 482.236364 134.083605 
L 482.930579 129.477068 
L 483.624793 134.979321 
L 484.319008 133.827686 
L 485.013223 129.02921 
L 485.707438 132.740032 
L 486.401653 122.695221 
L 487.095868 125.126449 
L 487.790083 130.9486 
L 488.484298 124.742571 
L 489.178512 120.072053 
L 489.872727 119.816135 
L 490.566942 117.256947 
L 491.261157 120.83981 
L 491.955372 120.391952 
L 492.649587 120.967769 
L 493.343802 117.832764 
L 494.038017 117.832764 
L 494.732231 124.486652 
L 496.120661 114.50582 
L 496.814876 110.986937 
L 497.509091 109.899283 
L 498.203306 105.804583 
L 498.897521 104.844887 
L 499.591736 107.468055 
L 500.28595 113.098267 
L 500.980165 107.084176 
L 501.67438 104.716928 
L 502.368595 104.26907 
L 503.06281 98.638858 
L 503.757025 95.503853 
L 504.45124 98.06304 
L 505.145455 90.513437 
L 505.839669 95.887731 
L 506.533884 98.12702 
L 507.228099 97.167325 
L 507.922314 89.105884 
L 508.616529 86.034859 
L 509.310744 88.530067 
L 510.004959 85.650981 
L 510.699174 84.371387 
L 511.393388 83.73159 
L 512.087603 74.838413 
L 512.781818 76.118007 
L 513.476033 66.457074 
L 514.170248 72.919023 
L 514.864463 62.746252 
L 515.558678 60.187064 
L 516.252893 44.64 
L 516.947107 53.021339 
L 517.641322 59.547268 
L 518.335537 68.824322 
L 519.029752 72.151266 
L 519.723967 73.814738 
L 520.418182 71.575449 
L 521.112397 73.110962 
L 521.806612 85.011184 
L 523.195041 84.051488 
L 523.889256 88.210168 
L 524.583471 83.987509 
L 525.277686 89.93762 
L 525.971901 89.681701 
L 526.666116 96.07967 
L 527.360331 94.288239 
L 528.054545 96.07967 
L 528.74876 104.716928 
L 529.442975 103.757233 
L 530.13719 104.908867 
L 530.831405 102.541619 
L 531.52562 105.932542 
L 532.219835 101.262025 
L 532.91405 103.181415 
L 533.608264 107.659994 
L 534.302479 114.889699 
L 534.996694 114.441841 
L 535.690909 111.050917 
L 537.079339 113.674084 
L 537.773554 122.567261 
L 538.467769 111.754694 
L 539.161983 112.52245 
L 539.856198 113.034288 
L 540.550413 122.247363 
L 541.244628 121.543586 
L 541.938843 121.415627 
L 542.633058 124.230733 
L 543.327273 122.7592 
L 544.021488 124.294713 
L 544.715702 126.8539 
L 545.409917 122.7592 
L 546.104132 126.022164 
L 546.798347 119.816135 
L 547.492562 131.588397 
L 548.186777 131.972275 
L 548.880992 128.709311 
L 549.575207 131.14054 
L 550.269421 131.588397 
L 550.963636 128.773291 
L 551.657851 132.420133 
L 552.352066 138.242285 
L 553.046281 137.602488 
L 553.740496 134.083605 
L 554.434711 135.23524 
L 555.128926 141.569229 
L 555.82314 137.730447 
L 556.517355 139.32994 
L 557.21157 139.074021 
L 557.905785 143.29668 
L 558.6 143.680559 
L 559.294215 144.384335 
L 559.98843 139.969737 
L 560.682645 141.953107 
L 561.37686 139.521879 
L 562.071074 144.768213 
L 562.765289 147.647299 
L 563.459504 148.543015 
L 564.153719 145.024132 
L 564.847934 148.351076 
L 565.542149 144.640254 
L 566.236364 150.590365 
L 566.930579 152.765674 
L 567.624793 148.095157 
L 568.319008 146.303726 
L 569.013223 154.237207 
L 569.707438 150.974243 
L 570.401653 151.166182 
L 571.095868 160.763136 
L 571.790083 149.950568 
L 572.484298 149.886588 
L 573.178512 154.813024 
L 573.872727 154.365167 
L 574.566942 157.69211 
L 575.261157 153.789349 
L 575.955372 159.163643 
L 576.649587 150.974243 
L 577.343802 155.388842 
L 578.038017 155.388842 
L 578.732231 157.75609 
L 579.426446 156.668435 
L 580.120661 159.547521 
L 580.814876 160.763136 
L 581.509091 160.827115 
L 582.203306 159.611501 
L 582.897521 154.749045 
L 583.591736 165.113754 
L 584.28595 163.706201 
L 584.980165 157.180273 
L 585.67438 167.225084 
L 586.368595 167.481003 
L 587.06281 158.971704 
L 587.757025 159.483542 
L 588.45124 162.874465 
L 589.145455 163.194364 
L 589.839669 170.616008 
L 590.533884 169.656312 
L 591.228099 169.592333 
L 591.922314 175.158566 
L 592.616529 167.928861 
L 593.310744 173.367134 
L 594.004959 173.239175 
L 594.699174 169.144475 
L 595.393388 173.751012 
L 596.087603 175.094586 
L 596.781818 165.817531 
L 597.476033 169.144475 
L 598.170248 171.895601 
L 598.864463 172.08754 
L 600.252893 169.976211 
L 601.641322 175.542444 
L 602.335537 176.37418 
L 603.029752 176.37418 
L 604.418182 180.532859 
L 605.112397 175.030606 
L 605.806612 173.687033 
L 606.500826 175.542444 
L 607.195041 179.893063 
L 607.889256 179.125306 
L 608.583471 180.148981 
L 609.277686 177.909692 
L 609.971901 176.758058 
L 610.666116 178.613469 
L 611.360331 179.701123 
L 612.054545 182.38827 
L 612.74876 179.957042 
L 613.442975 183.156027 
L 614.13719 179.573164 
L 614.831405 174.32683 
L 615.52562 180.724798 
L 616.219835 183.475925 
L 616.91405 181.044697 
L 617.608264 179.189286 
L 618.302479 189.490016 
L 618.996694 179.765103 
L 619.690909 182.708169 
L 620.385124 184.62756 
L 621.079339 186.163072 
L 621.773554 186.802869 
L 622.467769 181.364595 
L 623.161983 185.971133 
L 623.856198 185.907153 
L 624.550413 183.411945 
L 625.244628 184.115722 
L 626.633058 194.160533 
L 627.327273 188.210422 
L 628.021488 189.298077 
L 628.715702 188.65828 
L 629.409917 188.5943 
L 630.104132 192.113183 
L 630.798347 189.937874 
L 631.492562 191.665325 
L 632.186777 192.75298 
L 632.880992 192.689 
L 633.575207 192.369102 
L 634.269421 193.904614 
L 634.963636 192.944919 
L 636.352066 192.75298 
L 637.046281 193.904614 
L 637.740496 187.442666 
L 638.434711 192.369102 
L 639.128926 198.191254 
L 639.82314 196.975639 
L 640.517355 187.442666 
L 641.21157 196.975639 
L 641.905785 199.854725 
L 642.6 194.73635 
L 643.294215 197.615436 
L 643.98843 197.487477 
L 644.682645 197.167579 
L 645.37686 193.968594 
L 646.071074 191.729305 
L 646.765289 199.02299 
L 647.459504 199.982685 
L 648.153719 199.278908 
L 648.847934 193.136858 
L 650.236364 200.302583 
L 650.930579 201.00636 
L 651.624793 196.015944 
L 653.013223 202.349933 
L 653.707438 202.221974 
L 654.401653 201.902076 
L 655.095868 199.726766 
L 655.790083 201.454218 
L 656.484298 203.949426 
L 657.178512 204.589222 
L 657.872727 203.885446 
L 658.566942 201.00636 
L 659.261157 202.797791 
L 659.955372 198.255233 
L 660.649587 202.285954 
L 661.343802 202.030035 
L 662.038017 201.07034 
L 662.732231 202.157994 
L 663.426446 200.302583 
L 664.120661 204.333304 
L 664.814876 205.420958 
L 665.509091 207.468308 
L 666.203306 207.532288 
L 666.897521 197.615436 
L 667.591736 209.899537 
L 668.28595 211.30709 
L 668.980165 206.060755 
L 669.67438 201.774116 
L 670.368595 212.010866 
L 671.06281 205.292999 
L 671.757025 205.356979 
L 672.45124 206.956471 
L 673.145455 204.141365 
L 673.839669 211.115151 
L 674.533884 208.491983 
L 675.228099 208.811882 
L 675.922314 205.676877 
L 676.616529 212.458724 
L 677.310744 206.828512 
L 678.004959 208.364024 
L 678.699174 209.451679 
L 679.393388 203.245649 
L 680.087603 209.643618 
L 680.781818 210.667293 
L 681.476033 209.963516 
L 682.170248 210.219435 
L 682.864463 208.364024 
L 683.558678 214.442095 
L 684.947107 207.788207 
L 685.641322 207.660248 
L 686.335537 210.923212 
L 687.029752 213.162501 
L 687.723967 211.115151 
L 688.418182 209.963516 
L 689.112397 212.394745 
L 689.806612 210.987191 
L 690.500826 214.698013 
L 691.195041 215.40179 
L 691.889256 215.593729 
L 692.583471 212.330765 
L 693.277686 211.115151 
L 693.971901 212.970562 
L 694.666116 214.186176 
L 695.360331 213.098521 
L 696.054545 214.698013 
L 696.74876 213.674338 
L 697.442975 221.60782 
L 698.13719 212.906582 
L 698.831405 210.603313 
L 699.52562 219.112612 
L 700.219835 215.849648 
L 700.91405 218.152917 
L 701.608264 215.721688 
L 702.302479 215.849648 
L 702.996694 217.257201 
L 703.690909 216.233526 
L 704.385124 218.664754 
L 705.079339 211.563009 
L 705.773554 216.233526 
L 706.467769 218.600774 
L 707.161983 220.136287 
L 707.856198 218.664754 
L 708.550413 219.240571 
L 709.244628 222.695474 
L 709.938843 215.849648 
L 710.633058 216.297506 
L 711.327273 217.129242 
L 712.021488 216.361485 
L 712.715702 221.223942 
L 713.409917 218.024957 
L 714.104132 213.034541 
L 714.798347 216.169546 
L 715.492562 217.833018 
L 716.186777 212.778623 
L 716.880992 222.119657 
L 717.575207 216.425465 
L 718.963636 219.112612 
L 719.657851 219.240571 
L 720.352066 221.47986 
L 721.046281 223.079353 
L 721.740496 220.264246 
L 722.434711 223.975068 
L 723.128926 218.600774 
L 723.82314 218.472815 
L 724.517355 219.048632 
L 725.21157 222.951393 
L 725.905785 224.230987 
L 726.6 218.408835 
L 727.294215 221.47986 
L 727.98843 219.304551 
L 728.682645 220.136287 
L 729.37686 221.159962 
L 730.071074 223.783129 
L 730.765289 221.159962 
L 731.459504 225.318642 
L 732.153719 226.534256 
L 732.847934 221.47986 
L 733.542149 221.47986 
L 734.236364 223.271292 
L 734.930579 220.712104 
L 735.624793 223.207312 
L 736.319008 225.254662 
L 737.013223 217.51312 
L 737.707438 225.57456 
L 738.401653 225.894459 
L 739.095868 219.176592 
L 739.790083 225.254662 
L 740.484298 218.984652 
L 741.178512 222.503535 
L 741.872727 221.60782 
L 742.566942 226.982114 
L 743.261157 222.887414 
L 744.649587 228.901504 
L 745.343802 227.174053 
L 746.038017 223.911089 
L 746.732231 225.126703 
L 747.426446 224.678845 
L 748.120661 225.510581 
L 748.814876 225.70252 
L 749.509091 226.662215 
L 750.203306 223.079353 
L 750.897521 222.567515 
L 751.591736 223.847109 
L 752.28595 225.958439 
L 752.980165 226.086398 
L 753.67438 225.126703 
L 754.368595 225.57456 
L 755.06281 230.628956 
L 755.757025 227.302012 
L 756.45124 229.477321 
L 757.145455 224.934764 
L 757.839669 226.918134 
L 758.533884 229.477321 
L 760.616529 227.174053 
L 761.310744 229.029464 
L 762.004959 226.086398 
L 762.699174 227.877829 
L 763.393388 226.918134 
L 764.087603 228.965484 
L 764.781818 229.989159 
L 766.170248 226.278337 
L 766.864463 223.719149 
L 767.558678 229.349362 
L 768.252893 228.453646 
L 768.947107 227.238032 
L 769.641322 231.332732 
L 770.335537 230.692936 
L 771.029752 229.541301 
L 771.723967 230.564976 
L 772.418182 231.012834 
L 773.112397 231.268753 
L 773.806612 230.053139 
L 774.500826 229.79722 
L 775.195041 226.598235 
L 775.889256 232.612326 
L 776.583471 231.332732 
L 777.277686 232.420387 
L 777.971901 230.692936 
L 778.666116 228.325687 
L 779.360331 228.645586 
L 780.054545 232.676306 
L 780.74876 230.756915 
L 781.442975 230.181098 
L 782.13719 233.508042 
L 782.831405 232.292428 
L 783.52562 230.309057 
L 784.219835 229.349362 
L 784.91405 229.989159 
L 785.608264 232.676306 
L 786.302479 233.699981 
L 786.996694 230.948854 
L 787.690909 231.460692 
L 789.079339 233.316103 
L 789.773554 228.453646 
L 790.467769 234.019879 
L 791.161983 229.157423 
L 791.856198 233.82794 
L 792.550413 232.676306 
L 793.244628 236.131209 
L 793.938843 233.82794 
L 794.633058 233.763961 
L 795.327273 231.076814 
L 796.021488 231.588651 
L 796.715702 234.403758 
L 797.409917 235.299473 
L 798.104132 231.90855 
L 798.798347 234.403758 
L 799.492562 232.932225 
L 800.186777 236.962945 
L 800.880992 232.612326 
L 801.575207 235.93927 
L 802.269421 233.508042 
L 803.657851 236.195189 
L 804.352066 233.444062 
L 805.046281 234.403758 
L 806.434711 236.771006 
L 807.128926 237.026925 
L 809.21157 233.572022 
L 809.905785 236.579067 
L 810.6 232.932225 
L 811.294215 235.491412 
L 811.98843 234.659676 
L 812.682645 235.107534 
L 813.37686 236.00325 
L 814.071074 234.019879 
L 814.765289 235.747331 
L 815.459504 236.067229 
L 816.153719 239.266214 
L 816.847934 233.572022 
L 817.542149 229.925179 
L 818.236364 236.643047 
L 818.930579 237.98662 
L 819.624793 237.602742 
L 820.319008 238.946315 
L 821.707438 236.387128 
L 822.401653 239.010295 
L 823.095868 236.195189 
L 824.484298 239.074275 
L 825.178512 234.083859 
L 825.872727 238.498458 
L 826.566942 235.619372 
L 827.261157 235.299473 
L 827.955372 235.427433 
L 828.649587 239.522133 
L 829.343802 238.242539 
L 830.038017 238.242539 
L 830.732231 233.380083 
L 832.120661 240.993666 
L 832.814876 237.602742 
L 833.509091 236.643047 
L 834.203306 240.673767 
L 834.897521 240.609787 
L 836.28595 237.282844 
L 836.980165 237.282844 
L 837.67438 239.458153 
L 838.368595 239.778051 
L 839.06281 237.602742 
L 839.757025 236.962945 
L 840.45124 238.178559 
L 841.145455 240.545808 
L 841.839669 242.1453 
L 842.533884 238.370498 
L 843.228099 241.249584 
L 843.922314 239.96999 
L 844.616529 239.522133 
L 845.310744 241.889381 
L 846.004959 240.801726 
L 846.699174 243.424894 
L 848.087603 240.609787 
L 848.781818 237.666722 
L 849.476033 237.858661 
L 850.170248 239.650092 
L 850.864463 233.572022 
L 851.558678 235.299473 
L 852.252893 240.225909 
L 852.947107 240.03397 
L 853.641322 242.657137 
L 854.335537 242.849076 
L 855.029752 241.953361 
L 855.723967 239.394173 
L 856.418182 242.08132 
L 857.112397 237.474783 
L 857.806612 239.714072 
L 858.500826 242.657137 
L 859.195041 239.586112 
L 859.889256 242.20928 
L 860.583471 242.20928 
L 861.277686 243.168975 
L 861.971901 238.690397 
L 862.666116 241.569483 
L 863.360331 243.616833 
L 864.054545 242.657137 
L 864.74876 241.505503 
L 865.442975 239.650092 
L 866.13719 243.744792 
L 866.831405 242.08132 
L 867.52562 243.552853 
L 868.219835 239.330194 
L 868.91405 243.424894 
L 869.608264 241.761422 
L 870.302479 241.889381 
L 870.996694 243.360914 
L 871.690909 241.633462 
L 871.690909 241.633462 
" clip-path="url(#p7425089218)" style="fill: none; stroke: #9370db; stroke-width: 1.5; stroke-linecap: square"/>
   </g>
   <g id="patch_3">
    <path d="M 126 256.32 
L 126 34.56 
" style="fill: none; stroke: #000000; stroke-width: 0.8; stroke-linejoin: miter; stroke-linecap: square"/>
   </g>
   <g id="patch_4">
    <path d="M 907.2 256.32 
L 907.2 34.56 
" style="fill: none; stroke: #000000; stroke-width: 0.8; stroke-linejoin: miter; stroke-linecap: square"/>
   </g>
   <g id="patch_5">
    <path d="M 126 256.32 
L 907.2 256.32 
" style="fill: none; stroke: #000000; stroke-width: 0.8; stroke-linejoin: miter; stroke-linecap: square"/>
   </g>
   <g id="patch_6">
    <path d="M 126 34.56 
L 907.2 34.56 
" style="fill: none; stroke: #000000; stroke-width: 0.8; stroke-linejoin: miter; stroke-linecap: square"/>
   </g>
   <g id="text_15">
    <!-- 1D Density Profile (X-Axis) -->
    <g transform="translate(385.614063 28.56) scale(0.2 -0.2)">
     <defs>
      <path id="DejaVuSans-44" d="M 1259 4147 
L 1259 519 
L 2022 519 
Q 2988 519 3436 956 
Q 3884 1394 3884 2338 
Q 3884 3275 3436 3711 
Q 2988 4147 2022 4147 
L 1259 4147 
z
M 628 4666 
L 1925 4666 
Q 3281 4666 3915 4102 
Q 4550 3538 4550 2338 
Q 4550 1131 3912 565 
Q 3275 0 1925 0 
L 628 0 
L 628 4666 
z
" transform="scale(0.015625)"/>
      <path id="DejaVuSans-74" d="M 1172 4494 
L 1172 3500 
L 2356 3500 
L 2356 3053 
L 1172 3053 
L 1172 1153 
Q 1172 725 1289 603 
Q 1406 481 1766 481 
L 2356 481 
L 2356 0 
L 1766 0 
Q 1100 0 847 248 
Q 594 497 594 1153 
L 594 3053 
L 172 3053 
L 172 3500 
L 594 3500 
L 594 4494 
L 1172 4494 
z
" transform="scale(0.015625)"/>
      <path id="DejaVuSans-50" d="M 1259 4147 
L 1259 2394 
L 2053 2394 
Q 2494 2394 2734 2622 
Q 2975 2850 2975 3272 
Q 2975 3691 2734 3919 
Q 2494 4147 2053 4147 
L 1259 4147 
z
M 628 4666 
L 2053 4666 
Q 2838 4666 3239 4311 
Q 3641 3956 3641 3272 
Q 3641 2581 3239 2228 
Q 2838 1875 2053 1875 
L 1259 1875 
L 1259 0 
L 628 0 
L 628 4666 
z
" transform="scale(0.015625)"/>
      <path id="DejaVuSans-66" d="M 2375 4863 
L 2375 4384 
L 1825 4384 
Q 1516 4384 1395 4259 
Q 1275 4134 1275 3809 
L 1275 3500 
L 2222 3500 
L 2222 3053 
L 1275 3053 
L 1275 0 
L 697 0 
L 697 3053 
L 147 3053 
L 147 3500 
L 697 3500 
L 697 3744 
Q 697 4328 969 4595 
Q 1241 4863 1831 4863 
L 2375 4863 
z
" transform="scale(0.015625)"/>
      <path id="DejaVuSans-2d" d="M 313 2009 
L 1997 2009 
L 1997 1497 
L 313 1497 
L 313 2009 
z
" transform="scale(0.015625)"/>
      <path id="DejaVuSans-41" d="M 2188 4044 
L 1331 1722 
L 3047 1722 
L 2188 4044 
z
M 1831 4666 
L 2547 4666 
L 4325 0 
L 3669 0 
L 3244 1197 
L 1141 1197 
L 716 0 
L 50 0 
L 1831 4666 
z
" transform="scale(0.015625)"/>
     </defs>
     <use xlink:href="#DejaVuSans-31"/>
     <use xlink:href="#DejaVuSans-44" x="63.623047"/>
     <use xlink:href="#DejaVuSans-20" x="140.625"/>
     <use xlink:href="#DejaVuSans-44" x="172.412109"/>
     <use xlink:href="#DejaVuSans-65" x="249.414062"/>
     <use xlink:href="#DejaVuSans-6e" x="310.9375"/>
     <use xlink:href="#DejaVuSans-73" x="374.316406"/>
     <use xlink:href="#DejaVuSans-69" x="426.416016"/>
     <use xlink:href="#DejaVuSans-74" x="454.199219"/>
     <use xlink:href="#DejaVuSans-79" x="493.408203"/>
     <use xlink:href="#DejaVuSans-20" x="552.587891"/>
     <use xlink:href="#DejaVuSans-50" x="584.375"/>
     <use xlink:href="#DejaVuSans-72" x="642.927734"/>
     <use xlink:href="#DejaVuSans-6f" x="681.791016"/>
     <use xlink:href="#DejaVuSans-66" x="742.972656"/>
     <use xlink:href="#DejaVuSans-69" x="778.177734"/>
     <use xlink:href="#DejaVuSans-6c" x="805.960938"/>
     <use xlink:href="#DejaVuSans-65" x="833.744141"/>
     <use xlink:href="#DejaVuSans-20" x="895.267578"/>
     <use xlink:href="#DejaVuSans-28" x="927.054688"/>
     <use xlink:href="#DejaVuSans-58" x="966.068359"/>
     <use xlink:href="#DejaVuSans-2d" x="1029.574219"/>
     <use xlink:href="#DejaVuSans-41" x="1063.408203"/>
     <use xlink:href="#DejaVuSans-78" x="1131.816406"/>
     <use xlink:href="#DejaVuSans-69" x="1190.996094"/>
     <use xlink:href="#DejaVuSans-73" x="1218.779297"/>
     <use xlink:href="#DejaVuSans-29" x="1270.878906"/>
    </g>
   </g>
  </g>
 </g>
 <defs>
  <clipPath id="p7425089218">
   <rect x="126" y="34.56" width="781.2" height="221.76"/>
  </clipPath>
 </defs>
</svg>
