<?xml version="1.0" encoding="utf-8" standalone="no"?>
<!DOCTYPE svg PUBLIC "-//W3C//DTD SVG 1.1//EN"
  "http://www.w3.org/Graphics/SVG/1.1/DTD/svg11.dtd">
<svg xmlns:xlink="http://www.w3.org/1999/xlink" width="720pt" height="360pt" viewBox="0 0 720 360" xmlns="http://www.w3.org/2000/svg" version="1.1">
 <metadata>
  <rdf:RDF xmlns:dc="http://purl.org/dc/elements/1.1/" xmlns:cc="http://creativecommons.org/ns#" xmlns:rdf="http://www.w3.org/1999/02/22-rdf-syntax-ns#">
   <cc:Work>
    <dc:type rdf:resource="http://purl.org/dc/dcmitype/StillImage"/>
    <dc:date>2024-08-16T14:53:45.800933</dc:date>
    <dc:format>image/svg+xml</dc:format>
    <dc:creator>
     <cc:Agent>
      <dc:title>Matplotlib v3.9.2, https://matplotlib.org/</dc:title>
     </cc:Agent>
    </dc:creator>
   </cc:Work>
  </rdf:RDF>
 </metadata>
 <defs>
  <style type="text/css">*{stroke-linejoin: round; stroke-linecap: butt}</style>
 </defs>
 <g id="figure_1">
  <g id="patch_1">
   <path d="M 0 360 
L 720 360 
L 720 0 
L 0 0 
L 0 360 
z
" style="fill: none"/>
  </g>
  <g id="axes_1">
   <g id="patch_2">
    <path d="M 90 320.4 
L 648 320.4 
L 648 43.2 
L 90 43.2 
L 90 320.4 
z
" style="fill: none"/>
   </g>
   <g id="matplotlib.axis_1">
    <g id="xtick_1">
     <g id="line2d_1">
      <path d="M 115.363636 320.4 
L 115.363636 43.2 
" clip-path="url(#p0e926142d0)" style="fill: none; stroke: #b0b0b0; stroke-width: 0.8; stroke-linecap: square"/>
     </g>
     <g id="line2d_2">
      <defs>
       <path id="m8ea4b24225" d="M 0 0 
L 0 3.5 
" style="stroke: #000000; stroke-width: 0.8"/>
      </defs>
      <g>
       <use xlink:href="#m8ea4b24225" x="115.363636" y="320.4" style="stroke: #000000; stroke-width: 0.8"/>
      </g>
     </g>
     <g id="text_1">
      <!-- 0 -->
      <g transform="translate(112.182386 334.998438) scale(0.1 -0.1)">
       <defs>
        <path id="DejaVuSans-30" d="M 2034 4250 
Q 1547 4250 1301 3770 
Q 1056 3291 1056 2328 
Q 1056 1369 1301 889 
Q 1547 409 2034 409 
Q 2525 409 2770 889 
Q 3016 1369 3016 2328 
Q 3016 3291 2770 3770 
Q 2525 4250 2034 4250 
z
M 2034 4750 
Q 2819 4750 3233 4129 
Q 3647 3509 3647 2328 
Q 3647 1150 3233 529 
Q 2819 -91 2034 -91 
Q 1250 -91 836 529 
Q 422 1150 422 2328 
Q 422 3509 836 4129 
Q 1250 4750 2034 4750 
z
" transform="scale(0.015625)"/>
       </defs>
       <use xlink:href="#DejaVuSans-30"/>
      </g>
     </g>
    </g>
    <g id="xtick_2">
     <g id="line2d_3">
      <path d="M 214.53719 320.4 
L 214.53719 43.2 
" clip-path="url(#p0e926142d0)" style="fill: none; stroke: #b0b0b0; stroke-width: 0.8; stroke-linecap: square"/>
     </g>
     <g id="line2d_4">
      <g>
       <use xlink:href="#m8ea4b24225" x="214.53719" y="320.4" style="stroke: #000000; stroke-width: 0.8"/>
      </g>
     </g>
     <g id="text_2">
      <!-- 200 -->
      <g transform="translate(204.99344 334.998438) scale(0.1 -0.1)">
       <defs>
        <path id="DejaVuSans-32" d="M 1228 531 
L 3431 531 
L 3431 0 
L 469 0 
L 469 531 
Q 828 903 1448 1529 
Q 2069 2156 2228 2338 
Q 2531 2678 2651 2914 
Q 2772 3150 2772 3378 
Q 2772 3750 2511 3984 
Q 2250 4219 1831 4219 
Q 1534 4219 1204 4116 
Q 875 4013 500 3803 
L 500 4441 
Q 881 4594 1212 4672 
Q 1544 4750 1819 4750 
Q 2544 4750 2975 4387 
Q 3406 4025 3406 3419 
Q 3406 3131 3298 2873 
Q 3191 2616 2906 2266 
Q 2828 2175 2409 1742 
Q 1991 1309 1228 531 
z
" transform="scale(0.015625)"/>
       </defs>
       <use xlink:href="#DejaVuSans-32"/>
       <use xlink:href="#DejaVuSans-30" x="63.623047"/>
       <use xlink:href="#DejaVuSans-30" x="127.246094"/>
      </g>
     </g>
    </g>
    <g id="xtick_3">
     <g id="line2d_5">
      <path d="M 313.710744 320.4 
L 313.710744 43.2 
" clip-path="url(#p0e926142d0)" style="fill: none; stroke: #b0b0b0; stroke-width: 0.8; stroke-linecap: square"/>
     </g>
     <g id="line2d_6">
      <g>
       <use xlink:href="#m8ea4b24225" x="313.710744" y="320.4" style="stroke: #000000; stroke-width: 0.8"/>
      </g>
     </g>
     <g id="text_3">
      <!-- 400 -->
      <g transform="translate(304.166994 334.998438) scale(0.1 -0.1)">
       <defs>
        <path id="DejaVuSans-34" d="M 2419 4116 
L 825 1625 
L 2419 1625 
L 2419 4116 
z
M 2253 4666 
L 3047 4666 
L 3047 1625 
L 3713 1625 
L 3713 1100 
L 3047 1100 
L 3047 0 
L 2419 0 
L 2419 1100 
L 313 1100 
L 313 1709 
L 2253 4666 
z
" transform="scale(0.015625)"/>
       </defs>
       <use xlink:href="#DejaVuSans-34"/>
       <use xlink:href="#DejaVuSans-30" x="63.623047"/>
       <use xlink:href="#DejaVuSans-30" x="127.246094"/>
      </g>
     </g>
    </g>
    <g id="xtick_4">
     <g id="line2d_7">
      <path d="M 412.884298 320.4 
L 412.884298 43.2 
" clip-path="url(#p0e926142d0)" style="fill: none; stroke: #b0b0b0; stroke-width: 0.8; stroke-linecap: square"/>
     </g>
     <g id="line2d_8">
      <g>
       <use xlink:href="#m8ea4b24225" x="412.884298" y="320.4" style="stroke: #000000; stroke-width: 0.8"/>
      </g>
     </g>
     <g id="text_4">
      <!-- 600 -->
      <g transform="translate(403.340548 334.998438) scale(0.1 -0.1)">
       <defs>
        <path id="DejaVuSans-36" d="M 2113 2584 
Q 1688 2584 1439 2293 
Q 1191 2003 1191 1497 
Q 1191 994 1439 701 
Q 1688 409 2113 409 
Q 2538 409 2786 701 
Q 3034 994 3034 1497 
Q 3034 2003 2786 2293 
Q 2538 2584 2113 2584 
z
M 3366 4563 
L 3366 3988 
Q 3128 4100 2886 4159 
Q 2644 4219 2406 4219 
Q 1781 4219 1451 3797 
Q 1122 3375 1075 2522 
Q 1259 2794 1537 2939 
Q 1816 3084 2150 3084 
Q 2853 3084 3261 2657 
Q 3669 2231 3669 1497 
Q 3669 778 3244 343 
Q 2819 -91 2113 -91 
Q 1303 -91 875 529 
Q 447 1150 447 2328 
Q 447 3434 972 4092 
Q 1497 4750 2381 4750 
Q 2619 4750 2861 4703 
Q 3103 4656 3366 4563 
z
" transform="scale(0.015625)"/>
       </defs>
       <use xlink:href="#DejaVuSans-36"/>
       <use xlink:href="#DejaVuSans-30" x="63.623047"/>
       <use xlink:href="#DejaVuSans-30" x="127.246094"/>
      </g>
     </g>
    </g>
    <g id="xtick_5">
     <g id="line2d_9">
      <path d="M 512.057851 320.4 
L 512.057851 43.2 
" clip-path="url(#p0e926142d0)" style="fill: none; stroke: #b0b0b0; stroke-width: 0.8; stroke-linecap: square"/>
     </g>
     <g id="line2d_10">
      <g>
       <use xlink:href="#m8ea4b24225" x="512.057851" y="320.4" style="stroke: #000000; stroke-width: 0.8"/>
      </g>
     </g>
     <g id="text_5">
      <!-- 800 -->
      <g transform="translate(502.514101 334.998438) scale(0.1 -0.1)">
       <defs>
        <path id="DejaVuSans-38" d="M 2034 2216 
Q 1584 2216 1326 1975 
Q 1069 1734 1069 1313 
Q 1069 891 1326 650 
Q 1584 409 2034 409 
Q 2484 409 2743 651 
Q 3003 894 3003 1313 
Q 3003 1734 2745 1975 
Q 2488 2216 2034 2216 
z
M 1403 2484 
Q 997 2584 770 2862 
Q 544 3141 544 3541 
Q 544 4100 942 4425 
Q 1341 4750 2034 4750 
Q 2731 4750 3128 4425 
Q 3525 4100 3525 3541 
Q 3525 3141 3298 2862 
Q 3072 2584 2669 2484 
Q 3125 2378 3379 2068 
Q 3634 1759 3634 1313 
Q 3634 634 3220 271 
Q 2806 -91 2034 -91 
Q 1263 -91 848 271 
Q 434 634 434 1313 
Q 434 1759 690 2068 
Q 947 2378 1403 2484 
z
M 1172 3481 
Q 1172 3119 1398 2916 
Q 1625 2713 2034 2713 
Q 2441 2713 2670 2916 
Q 2900 3119 2900 3481 
Q 2900 3844 2670 4047 
Q 2441 4250 2034 4250 
Q 1625 4250 1398 4047 
Q 1172 3844 1172 3481 
z
" transform="scale(0.015625)"/>
       </defs>
       <use xlink:href="#DejaVuSans-38"/>
       <use xlink:href="#DejaVuSans-30" x="63.623047"/>
       <use xlink:href="#DejaVuSans-30" x="127.246094"/>
      </g>
     </g>
    </g>
    <g id="xtick_6">
     <g id="line2d_11">
      <path d="M 611.231405 320.4 
L 611.231405 43.2 
" clip-path="url(#p0e926142d0)" style="fill: none; stroke: #b0b0b0; stroke-width: 0.8; stroke-linecap: square"/>
     </g>
     <g id="line2d_12">
      <g>
       <use xlink:href="#m8ea4b24225" x="611.231405" y="320.4" style="stroke: #000000; stroke-width: 0.8"/>
      </g>
     </g>
     <g id="text_6">
      <!-- 1000 -->
      <g transform="translate(598.506405 334.998438) scale(0.1 -0.1)">
       <defs>
        <path id="DejaVuSans-31" d="M 794 531 
L 1825 531 
L 1825 4091 
L 703 3866 
L 703 4441 
L 1819 4666 
L 2450 4666 
L 2450 531 
L 3481 531 
L 3481 0 
L 794 0 
L 794 531 
z
" transform="scale(0.015625)"/>
       </defs>
       <use xlink:href="#DejaVuSans-31"/>
       <use xlink:href="#DejaVuSans-30" x="63.623047"/>
       <use xlink:href="#DejaVuSans-30" x="127.246094"/>
       <use xlink:href="#DejaVuSans-30" x="190.869141"/>
      </g>
     </g>
    </g>
    <g id="text_7">
     <!-- Y (pixels) -->
     <g transform="translate(346.01875 348.676562) scale(0.1 -0.1)">
      <defs>
       <path id="DejaVuSans-59" d="M -13 4666 
L 666 4666 
L 1959 2747 
L 3244 4666 
L 3922 4666 
L 2272 2222 
L 2272 0 
L 1638 0 
L 1638 2222 
L -13 4666 
z
" transform="scale(0.015625)"/>
       <path id="DejaVuSans-20" transform="scale(0.015625)"/>
       <path id="DejaVuSans-28" d="M 1984 4856 
Q 1566 4138 1362 3434 
Q 1159 2731 1159 2009 
Q 1159 1288 1364 580 
Q 1569 -128 1984 -844 
L 1484 -844 
Q 1016 -109 783 600 
Q 550 1309 550 2009 
Q 550 2706 781 3412 
Q 1013 4119 1484 4856 
L 1984 4856 
z
" transform="scale(0.015625)"/>
       <path id="DejaVuSans-70" d="M 1159 525 
L 1159 -1331 
L 581 -1331 
L 581 3500 
L 1159 3500 
L 1159 2969 
Q 1341 3281 1617 3432 
Q 1894 3584 2278 3584 
Q 2916 3584 3314 3078 
Q 3713 2572 3713 1747 
Q 3713 922 3314 415 
Q 2916 -91 2278 -91 
Q 1894 -91 1617 61 
Q 1341 213 1159 525 
z
M 3116 1747 
Q 3116 2381 2855 2742 
Q 2594 3103 2138 3103 
Q 1681 3103 1420 2742 
Q 1159 2381 1159 1747 
Q 1159 1113 1420 752 
Q 1681 391 2138 391 
Q 2594 391 2855 752 
Q 3116 1113 3116 1747 
z
" transform="scale(0.015625)"/>
       <path id="DejaVuSans-69" d="M 603 3500 
L 1178 3500 
L 1178 0 
L 603 0 
L 603 3500 
z
M 603 4863 
L 1178 4863 
L 1178 4134 
L 603 4134 
L 603 4863 
z
" transform="scale(0.015625)"/>
       <path id="DejaVuSans-78" d="M 3513 3500 
L 2247 1797 
L 3578 0 
L 2900 0 
L 1881 1375 
L 863 0 
L 184 0 
L 1544 1831 
L 300 3500 
L 978 3500 
L 1906 2253 
L 2834 3500 
L 3513 3500 
z
" transform="scale(0.015625)"/>
       <path id="DejaVuSans-65" d="M 3597 1894 
L 3597 1613 
L 953 1613 
Q 991 1019 1311 708 
Q 1631 397 2203 397 
Q 2534 397 2845 478 
Q 3156 559 3463 722 
L 3463 178 
Q 3153 47 2828 -22 
Q 2503 -91 2169 -91 
Q 1331 -91 842 396 
Q 353 884 353 1716 
Q 353 2575 817 3079 
Q 1281 3584 2069 3584 
Q 2775 3584 3186 3129 
Q 3597 2675 3597 1894 
z
M 3022 2063 
Q 3016 2534 2758 2815 
Q 2500 3097 2075 3097 
Q 1594 3097 1305 2825 
Q 1016 2553 972 2059 
L 3022 2063 
z
" transform="scale(0.015625)"/>
       <path id="DejaVuSans-6c" d="M 603 4863 
L 1178 4863 
L 1178 0 
L 603 0 
L 603 4863 
z
" transform="scale(0.015625)"/>
       <path id="DejaVuSans-73" d="M 2834 3397 
L 2834 2853 
Q 2591 2978 2328 3040 
Q 2066 3103 1784 3103 
Q 1356 3103 1142 2972 
Q 928 2841 928 2578 
Q 928 2378 1081 2264 
Q 1234 2150 1697 2047 
L 1894 2003 
Q 2506 1872 2764 1633 
Q 3022 1394 3022 966 
Q 3022 478 2636 193 
Q 2250 -91 1575 -91 
Q 1294 -91 989 -36 
Q 684 19 347 128 
L 347 722 
Q 666 556 975 473 
Q 1284 391 1588 391 
Q 1994 391 2212 530 
Q 2431 669 2431 922 
Q 2431 1156 2273 1281 
Q 2116 1406 1581 1522 
L 1381 1569 
Q 847 1681 609 1914 
Q 372 2147 372 2553 
Q 372 3047 722 3315 
Q 1072 3584 1716 3584 
Q 2034 3584 2315 3537 
Q 2597 3491 2834 3397 
z
" transform="scale(0.015625)"/>
       <path id="DejaVuSans-29" d="M 513 4856 
L 1013 4856 
Q 1481 4119 1714 3412 
Q 1947 2706 1947 2009 
Q 1947 1309 1714 600 
Q 1481 -109 1013 -844 
L 513 -844 
Q 928 -128 1133 580 
Q 1338 1288 1338 2009 
Q 1338 2731 1133 3434 
Q 928 4138 513 4856 
z
" transform="scale(0.015625)"/>
      </defs>
      <use xlink:href="#DejaVuSans-59"/>
      <use xlink:href="#DejaVuSans-20" x="61.083984"/>
      <use xlink:href="#DejaVuSans-28" x="92.871094"/>
      <use xlink:href="#DejaVuSans-70" x="131.884766"/>
      <use xlink:href="#DejaVuSans-69" x="195.361328"/>
      <use xlink:href="#DejaVuSans-78" x="223.144531"/>
      <use xlink:href="#DejaVuSans-65" x="279.199219"/>
      <use xlink:href="#DejaVuSans-6c" x="340.722656"/>
      <use xlink:href="#DejaVuSans-73" x="368.505859"/>
      <use xlink:href="#DejaVuSans-29" x="420.605469"/>
     </g>
    </g>
   </g>
   <g id="matplotlib.axis_2">
    <g id="ytick_1">
     <g id="line2d_13">
      <path d="M 90 279.031707 
L 648 279.031707 
" clip-path="url(#p0e926142d0)" style="fill: none; stroke: #b0b0b0; stroke-width: 0.8; stroke-linecap: square"/>
     </g>
     <g id="line2d_14">
      <defs>
       <path id="m6f40918bc1" d="M 0 0 
L -3.5 0 
" style="stroke: #000000; stroke-width: 0.8"/>
      </defs>
      <g>
       <use xlink:href="#m6f40918bc1" x="90" y="279.031707" style="stroke: #000000; stroke-width: 0.8"/>
      </g>
     </g>
     <g id="text_8">
      <!-- 1000 -->
      <g transform="translate(57.55 282.830926) scale(0.1 -0.1)">
       <use xlink:href="#DejaVuSans-31"/>
       <use xlink:href="#DejaVuSans-30" x="63.623047"/>
       <use xlink:href="#DejaVuSans-30" x="127.246094"/>
       <use xlink:href="#DejaVuSans-30" x="190.869141"/>
      </g>
     </g>
    </g>
    <g id="ytick_2">
     <g id="line2d_15">
      <path d="M 90 236.34878 
L 648 236.34878 
" clip-path="url(#p0e926142d0)" style="fill: none; stroke: #b0b0b0; stroke-width: 0.8; stroke-linecap: square"/>
     </g>
     <g id="line2d_16">
      <g>
       <use xlink:href="#m6f40918bc1" x="90" y="236.34878" style="stroke: #000000; stroke-width: 0.8"/>
      </g>
     </g>
     <g id="text_9">
      <!-- 1500 -->
      <g transform="translate(57.55 240.147999) scale(0.1 -0.1)">
       <defs>
        <path id="DejaVuSans-35" d="M 691 4666 
L 3169 4666 
L 3169 4134 
L 1269 4134 
L 1269 2991 
Q 1406 3038 1543 3061 
Q 1681 3084 1819 3084 
Q 2600 3084 3056 2656 
Q 3513 2228 3513 1497 
Q 3513 744 3044 326 
Q 2575 -91 1722 -91 
Q 1428 -91 1123 -41 
Q 819 9 494 109 
L 494 744 
Q 775 591 1075 516 
Q 1375 441 1709 441 
Q 2250 441 2565 725 
Q 2881 1009 2881 1497 
Q 2881 1984 2565 2268 
Q 2250 2553 1709 2553 
Q 1456 2553 1204 2497 
Q 953 2441 691 2322 
L 691 4666 
z
" transform="scale(0.015625)"/>
       </defs>
       <use xlink:href="#DejaVuSans-31"/>
       <use xlink:href="#DejaVuSans-35" x="63.623047"/>
       <use xlink:href="#DejaVuSans-30" x="127.246094"/>
       <use xlink:href="#DejaVuSans-30" x="190.869141"/>
      </g>
     </g>
    </g>
    <g id="ytick_3">
     <g id="line2d_17">
      <path d="M 90 193.665854 
L 648 193.665854 
" clip-path="url(#p0e926142d0)" style="fill: none; stroke: #b0b0b0; stroke-width: 0.8; stroke-linecap: square"/>
     </g>
     <g id="line2d_18">
      <g>
       <use xlink:href="#m6f40918bc1" x="90" y="193.665854" style="stroke: #000000; stroke-width: 0.8"/>
      </g>
     </g>
     <g id="text_10">
      <!-- 2000 -->
      <g transform="translate(57.55 197.465072) scale(0.1 -0.1)">
       <use xlink:href="#DejaVuSans-32"/>
       <use xlink:href="#DejaVuSans-30" x="63.623047"/>
       <use xlink:href="#DejaVuSans-30" x="127.246094"/>
       <use xlink:href="#DejaVuSans-30" x="190.869141"/>
      </g>
     </g>
    </g>
    <g id="ytick_4">
     <g id="line2d_19">
      <path d="M 90 150.982927 
L 648 150.982927 
" clip-path="url(#p0e926142d0)" style="fill: none; stroke: #b0b0b0; stroke-width: 0.8; stroke-linecap: square"/>
     </g>
     <g id="line2d_20">
      <g>
       <use xlink:href="#m6f40918bc1" x="90" y="150.982927" style="stroke: #000000; stroke-width: 0.8"/>
      </g>
     </g>
     <g id="text_11">
      <!-- 2500 -->
      <g transform="translate(57.55 154.782146) scale(0.1 -0.1)">
       <use xlink:href="#DejaVuSans-32"/>
       <use xlink:href="#DejaVuSans-35" x="63.623047"/>
       <use xlink:href="#DejaVuSans-30" x="127.246094"/>
       <use xlink:href="#DejaVuSans-30" x="190.869141"/>
      </g>
     </g>
    </g>
    <g id="ytick_5">
     <g id="line2d_21">
      <path d="M 90 108.3 
L 648 108.3 
" clip-path="url(#p0e926142d0)" style="fill: none; stroke: #b0b0b0; stroke-width: 0.8; stroke-linecap: square"/>
     </g>
     <g id="line2d_22">
      <g>
       <use xlink:href="#m6f40918bc1" x="90" y="108.3" style="stroke: #000000; stroke-width: 0.8"/>
      </g>
     </g>
     <g id="text_12">
      <!-- 3000 -->
      <g transform="translate(57.55 112.099219) scale(0.1 -0.1)">
       <defs>
        <path id="DejaVuSans-33" d="M 2597 2516 
Q 3050 2419 3304 2112 
Q 3559 1806 3559 1356 
Q 3559 666 3084 287 
Q 2609 -91 1734 -91 
Q 1441 -91 1130 -33 
Q 819 25 488 141 
L 488 750 
Q 750 597 1062 519 
Q 1375 441 1716 441 
Q 2309 441 2620 675 
Q 2931 909 2931 1356 
Q 2931 1769 2642 2001 
Q 2353 2234 1838 2234 
L 1294 2234 
L 1294 2753 
L 1863 2753 
Q 2328 2753 2575 2939 
Q 2822 3125 2822 3475 
Q 2822 3834 2567 4026 
Q 2313 4219 1838 4219 
Q 1578 4219 1281 4162 
Q 984 4106 628 3988 
L 628 4550 
Q 988 4650 1302 4700 
Q 1616 4750 1894 4750 
Q 2613 4750 3031 4423 
Q 3450 4097 3450 3541 
Q 3450 3153 3228 2886 
Q 3006 2619 2597 2516 
z
" transform="scale(0.015625)"/>
       </defs>
       <use xlink:href="#DejaVuSans-33"/>
       <use xlink:href="#DejaVuSans-30" x="63.623047"/>
       <use xlink:href="#DejaVuSans-30" x="127.246094"/>
       <use xlink:href="#DejaVuSans-30" x="190.869141"/>
      </g>
     </g>
    </g>
    <g id="ytick_6">
     <g id="line2d_23">
      <path d="M 90 65.617073 
L 648 65.617073 
" clip-path="url(#p0e926142d0)" style="fill: none; stroke: #b0b0b0; stroke-width: 0.8; stroke-linecap: square"/>
     </g>
     <g id="line2d_24">
      <g>
       <use xlink:href="#m6f40918bc1" x="90" y="65.617073" style="stroke: #000000; stroke-width: 0.8"/>
      </g>
     </g>
     <g id="text_13">
      <!-- 3500 -->
      <g transform="translate(57.55 69.416292) scale(0.1 -0.1)">
       <use xlink:href="#DejaVuSans-33"/>
       <use xlink:href="#DejaVuSans-35" x="63.623047"/>
       <use xlink:href="#DejaVuSans-30" x="127.246094"/>
       <use xlink:href="#DejaVuSans-30" x="190.869141"/>
      </g>
     </g>
    </g>
    <g id="text_14">
     <!-- Photon Counts -->
     <g transform="translate(51.470312 218.273438) rotate(-90) scale(0.1 -0.1)">
      <defs>
       <path id="DejaVuSans-50" d="M 1259 4147 
L 1259 2394 
L 2053 2394 
Q 2494 2394 2734 2622 
Q 2975 2850 2975 3272 
Q 2975 3691 2734 3919 
Q 2494 4147 2053 4147 
L 1259 4147 
z
M 628 4666 
L 2053 4666 
Q 2838 4666 3239 4311 
Q 3641 3956 3641 3272 
Q 3641 2581 3239 2228 
Q 2838 1875 2053 1875 
L 1259 1875 
L 1259 0 
L 628 0 
L 628 4666 
z
" transform="scale(0.015625)"/>
       <path id="DejaVuSans-68" d="M 3513 2113 
L 3513 0 
L 2938 0 
L 2938 2094 
Q 2938 2591 2744 2837 
Q 2550 3084 2163 3084 
Q 1697 3084 1428 2787 
Q 1159 2491 1159 1978 
L 1159 0 
L 581 0 
L 581 4863 
L 1159 4863 
L 1159 2956 
Q 1366 3272 1645 3428 
Q 1925 3584 2291 3584 
Q 2894 3584 3203 3211 
Q 3513 2838 3513 2113 
z
" transform="scale(0.015625)"/>
       <path id="DejaVuSans-6f" d="M 1959 3097 
Q 1497 3097 1228 2736 
Q 959 2375 959 1747 
Q 959 1119 1226 758 
Q 1494 397 1959 397 
Q 2419 397 2687 759 
Q 2956 1122 2956 1747 
Q 2956 2369 2687 2733 
Q 2419 3097 1959 3097 
z
M 1959 3584 
Q 2709 3584 3137 3096 
Q 3566 2609 3566 1747 
Q 3566 888 3137 398 
Q 2709 -91 1959 -91 
Q 1206 -91 779 398 
Q 353 888 353 1747 
Q 353 2609 779 3096 
Q 1206 3584 1959 3584 
z
" transform="scale(0.015625)"/>
       <path id="DejaVuSans-74" d="M 1172 4494 
L 1172 3500 
L 2356 3500 
L 2356 3053 
L 1172 3053 
L 1172 1153 
Q 1172 725 1289 603 
Q 1406 481 1766 481 
L 2356 481 
L 2356 0 
L 1766 0 
Q 1100 0 847 248 
Q 594 497 594 1153 
L 594 3053 
L 172 3053 
L 172 3500 
L 594 3500 
L 594 4494 
L 1172 4494 
z
" transform="scale(0.015625)"/>
       <path id="DejaVuSans-6e" d="M 3513 2113 
L 3513 0 
L 2938 0 
L 2938 2094 
Q 2938 2591 2744 2837 
Q 2550 3084 2163 3084 
Q 1697 3084 1428 2787 
Q 1159 2491 1159 1978 
L 1159 0 
L 581 0 
L 581 3500 
L 1159 3500 
L 1159 2956 
Q 1366 3272 1645 3428 
Q 1925 3584 2291 3584 
Q 2894 3584 3203 3211 
Q 3513 2838 3513 2113 
z
" transform="scale(0.015625)"/>
       <path id="DejaVuSans-43" d="M 4122 4306 
L 4122 3641 
Q 3803 3938 3442 4084 
Q 3081 4231 2675 4231 
Q 1875 4231 1450 3742 
Q 1025 3253 1025 2328 
Q 1025 1406 1450 917 
Q 1875 428 2675 428 
Q 3081 428 3442 575 
Q 3803 722 4122 1019 
L 4122 359 
Q 3791 134 3420 21 
Q 3050 -91 2638 -91 
Q 1578 -91 968 557 
Q 359 1206 359 2328 
Q 359 3453 968 4101 
Q 1578 4750 2638 4750 
Q 3056 4750 3426 4639 
Q 3797 4528 4122 4306 
z
" transform="scale(0.015625)"/>
       <path id="DejaVuSans-75" d="M 544 1381 
L 544 3500 
L 1119 3500 
L 1119 1403 
Q 1119 906 1312 657 
Q 1506 409 1894 409 
Q 2359 409 2629 706 
Q 2900 1003 2900 1516 
L 2900 3500 
L 3475 3500 
L 3475 0 
L 2900 0 
L 2900 538 
Q 2691 219 2414 64 
Q 2138 -91 1772 -91 
Q 1169 -91 856 284 
Q 544 659 544 1381 
z
M 1991 3584 
L 1991 3584 
z
" transform="scale(0.015625)"/>
      </defs>
      <use xlink:href="#DejaVuSans-50"/>
      <use xlink:href="#DejaVuSans-68" x="60.302734"/>
      <use xlink:href="#DejaVuSans-6f" x="123.681641"/>
      <use xlink:href="#DejaVuSans-74" x="184.863281"/>
      <use xlink:href="#DejaVuSans-6f" x="224.072266"/>
      <use xlink:href="#DejaVuSans-6e" x="285.253906"/>
      <use xlink:href="#DejaVuSans-20" x="348.632812"/>
      <use xlink:href="#DejaVuSans-43" x="380.419922"/>
      <use xlink:href="#DejaVuSans-6f" x="450.244141"/>
      <use xlink:href="#DejaVuSans-75" x="511.425781"/>
      <use xlink:href="#DejaVuSans-6e" x="574.804688"/>
      <use xlink:href="#DejaVuSans-74" x="638.183594"/>
      <use xlink:href="#DejaVuSans-73" x="677.392578"/>
     </g>
    </g>
   </g>
   <g id="line2d_25">
    <path d="M 115.363636 304.3 
L 115.859504 302.678049 
L 116.355372 304.043902 
L 116.85124 303.019512 
L 117.347107 304.043902 
L 117.842975 301.226829 
L 118.338843 299.434146 
L 118.834711 301.312195 
L 119.330579 304.812195 
L 119.826446 302.507317 
L 120.322314 304.470732 
L 120.818182 302.336585 
L 121.31405 300.8 
L 121.809917 303.617073 
L 122.305785 299.178049 
L 122.801653 304.556098 
L 123.297521 299.690244 
L 124.289256 301.653659 
L 124.785124 301.995122 
L 125.280992 301.482927 
L 125.77686 307.8 
L 126.272727 303.787805 
L 126.768595 301.568293 
L 127.264463 298.32439 
L 127.760331 302.934146 
L 128.256198 298.32439 
L 128.752066 301.739024 
L 129.247934 298.580488 
L 129.743802 301.995122 
L 130.239669 302.763415 
L 130.735537 299.263415 
L 131.231405 304.043902 
L 131.727273 299.519512 
L 132.22314 298.580488 
L 132.719008 296.360976 
L 133.214876 302.84878 
L 133.710744 300.458537 
L 134.206612 298.75122 
L 134.702479 299.092683 
L 135.198347 303.27561 
L 135.694215 303.446341 
L 136.190083 305.409756 
L 136.68595 299.007317 
L 137.181818 301.739024 
L 137.677686 300.373171 
L 138.173554 297.129268 
L 138.669421 303.360976 
L 139.165289 300.8 
L 139.661157 297.641463 
L 140.157025 302.84878 
L 140.652893 297.641463 
L 141.14876 301.312195 
L 141.644628 299.34878 
L 142.140496 298.495122 
L 142.636364 299.263415 
L 143.132231 299.092683 
L 143.628099 301.909756 
L 144.123967 297.129268 
L 144.619835 301.568293 
L 145.115702 296.702439 
L 145.61157 297.897561 
L 146.107438 293.202439 
L 146.603306 295.763415 
L 147.099174 293.031707 
L 147.595041 294.312195 
L 148.090909 293.714634 
L 148.586777 294.82439 
L 149.082645 294.226829 
L 149.578512 300.629268 
L 150.570248 297.3 
L 151.066116 296.446341 
L 151.561983 300.543902 
L 152.057851 296.019512 
L 153.049587 300.031707 
L 153.545455 290.641463 
L 154.041322 294.995122 
L 154.53719 295.507317 
L 155.033058 295.080488 
L 155.528926 293.8 
L 156.024793 291.153659 
L 157.016529 296.446341 
L 157.512397 291.153659 
L 158.008264 296.104878 
L 158.504132 289.360976 
L 159 295.165854 
L 159.495868 291.409756 
L 159.991736 299.860976 
L 160.487603 293.287805 
L 160.983471 291.580488 
L 161.479339 296.27561 
L 161.975207 292.860976 
L 162.471074 291.836585 
L 162.966942 297.129268 
L 163.46281 294.226829 
L 163.958678 293.373171 
L 164.454545 290.641463 
L 164.950413 293.373171 
L 165.446281 294.82439 
L 165.942149 290.043902 
L 166.438017 289.531707 
L 167.429752 295.934146 
L 167.92562 290.556098 
L 168.421488 293.543902 
L 168.917355 293.629268 
L 169.413223 291.239024 
L 169.909091 293.714634 
L 170.404959 290.812195 
L 170.900826 282.531707 
L 171.396694 287.82439 
L 171.892562 288.336585 
L 172.38843 290.470732 
L 172.884298 286.885366 
L 173.380165 288.934146 
L 173.876033 289.787805 
L 174.371901 289.531707 
L 174.867769 291.153659 
L 175.859504 286.885366 
L 176.355372 290.470732 
L 176.85124 291.921951 
L 177.347107 291.580488 
L 177.842975 290.897561 
L 178.338843 288.165854 
L 178.834711 292.604878 
L 179.330579 286.885366 
L 179.826446 285.77561 
L 180.322314 291.409756 
L 180.818182 285.092683 
L 181.31405 287.82439 
L 181.809917 289.531707 
L 182.305785 289.873171 
L 182.801653 284.665854 
L 183.297521 289.019512 
L 183.793388 281.934146 
L 184.289256 286.373171 
L 184.785124 288.507317 
L 185.280992 289.104878 
L 185.77686 288.763415 
L 186.272727 286.885366 
L 186.768595 283.214634 
L 187.264463 286.117073 
L 187.760331 282.27561 
L 188.256198 287.141463 
L 188.752066 280.056098 
L 189.247934 287.482927 
L 189.743802 288.421951 
L 190.239669 286.714634 
L 190.735537 284.409756 
L 191.231405 284.580488 
L 191.727273 282.787805 
L 192.22314 281.592683 
L 192.719008 279.714634 
L 193.214876 285.519512 
L 193.710744 281.336585 
L 194.206612 286.117073 
L 194.702479 286.117073 
L 195.198347 281.678049 
L 195.694215 281.84878 
L 196.190083 283.812195 
L 196.68595 278.519512 
L 197.181818 284.75122 
L 197.677686 283.556098 
L 198.173554 287.312195 
L 198.669421 283.470732 
L 199.165289 281.507317 
L 199.661157 275.531707 
L 200.157025 283.385366 
L 200.652893 284.239024 
L 201.14876 281.165854 
L 201.644628 282.27561 
L 202.140496 281.080488 
L 202.636364 280.739024 
L 203.132231 277.665854 
L 203.628099 271.690244 
L 204.123967 282.873171 
L 204.619835 281.763415 
L 205.115702 282.617073 
L 205.61157 279.629268 
L 206.107438 282.531707 
L 206.603306 279.8 
L 207.099174 278.434146 
L 207.595041 281.080488 
L 208.090909 280.82439 
L 208.586777 279.373171 
L 209.082645 281.84878 
L 209.578512 280.739024 
L 210.07438 280.568293 
L 210.570248 280.056098 
L 211.066116 280.653659 
L 211.561983 279.287805 
L 212.057851 280.312195 
L 212.553719 273.226829 
L 213.049587 276.3 
L 213.545455 280.568293 
L 214.041322 273.82439 
L 214.53719 277.580488 
L 215.033058 276.3 
L 215.528926 277.495122 
L 216.024793 280.226829 
L 216.520661 278.946341 
L 217.016529 271.604878 
L 217.512397 275.531707 
L 218.008264 280.568293 
L 218.504132 275.531707 
L 219 271.77561 
L 219.495868 274.336585 
L 219.991736 273.056098 
L 220.487603 273.312195 
L 220.983471 278.007317 
L 221.479339 271.77561 
L 221.975207 272.117073 
L 222.471074 274.507317 
L 222.966942 272.8 
L 223.46281 265.8 
L 224.454545 278.519512 
L 224.950413 274.25122 
L 225.446281 273.141463 
L 226.438017 265.885366 
L 226.933884 271.519512 
L 227.429752 265.202439 
L 227.92562 268.873171 
L 228.421488 269.214634 
L 228.917355 265.885366 
L 229.413223 269.3 
L 229.909091 273.739024 
L 230.404959 267.934146 
L 230.900826 270.921951 
L 231.396694 272.543902 
L 231.892562 268.958537 
L 232.38843 271.946341 
L 232.884298 271.434146 
L 233.380165 270.32439 
L 233.876033 269.556098 
L 234.371901 271.007317 
L 234.867769 264.860976 
L 235.363636 270.580488 
L 235.859504 270.836585 
L 236.355372 263.921951 
L 236.85124 263.495122 
L 237.347107 270.921951 
L 237.842975 265.543902 
L 238.338843 268.190244 
L 238.834711 268.787805 
L 239.330579 267.678049 
L 239.826446 264.092683 
L 240.322314 264.519512 
L 240.818182 265.543902 
L 241.31405 265.8 
L 241.809917 260.763415 
L 242.305785 266.141463 
L 242.801653 262.385366 
L 243.297521 268.873171 
L 243.793388 265.885366 
L 244.289256 264.263415 
L 244.785124 263.580488 
L 245.280992 263.239024 
L 245.77686 262.385366 
L 246.272727 265.117073 
L 246.768595 257.263415 
L 247.264463 265.373171 
L 247.760331 258.458537 
L 248.256198 258.458537 
L 248.752066 257.690244 
L 249.247934 263.921951 
L 249.743802 266.397561 
L 250.239669 258.970732 
L 250.735537 262.129268 
L 251.727273 260.592683 
L 252.22314 261.617073 
L 253.214876 253.934146 
L 253.710744 259.312195 
L 254.206612 254.873171 
L 254.702479 258.543902 
L 255.198347 258.373171 
L 255.694215 257.434146 
L 256.190083 260.336585 
L 256.68595 255.385366 
L 257.181818 256.665854 
L 257.677686 255.897561 
L 258.173554 250.519512 
L 258.669421 258.373171 
L 259.165289 253.080488 
L 259.661157 251.543902 
L 260.652893 256.239024 
L 261.14876 259.909756 
L 262.140496 248.641463 
L 262.636364 247.873171 
L 263.132231 252.482927 
L 263.628099 255.897561 
L 264.123967 248.3 
L 264.619835 252.141463 
L 265.115702 249.32439 
L 265.61157 248.043902 
L 266.107438 253.421951 
L 266.603306 247.787805 
L 267.099174 247.702439 
L 267.595041 248.129268 
L 268.090909 244.117073 
L 268.586777 241.812195 
L 269.082645 248.129268 
L 269.578512 251.714634 
L 270.07438 248.470732 
L 270.570248 247.531707 
L 271.066116 244.885366 
L 271.561983 247.702439 
L 272.057851 251.8 
L 272.553719 248.556098 
L 273.049587 239.934146 
L 273.545455 248.214634 
L 274.53719 240.27561 
L 275.033058 242.495122 
L 275.528926 241.470732 
L 276.024793 240.787805 
L 276.520661 243.690244 
L 277.016529 238.056098 
L 277.512397 240.787805 
L 278.008264 242.068293 
L 278.504132 235.75122 
L 279 243.519512 
L 279.495868 241.129268 
L 279.991736 237.885366 
L 280.487603 237.287805 
L 280.983471 233.787805 
L 281.479339 237.885366 
L 281.975207 238.397561 
L 282.471074 231.568293 
L 282.966942 235.836585 
L 283.46281 235.153659 
L 283.958678 238.312195 
L 284.454545 234.982927 
L 284.950413 232.763415 
L 285.446281 233.702439 
L 285.942149 225.421951 
L 286.438017 233.958537 
L 286.933884 225.507317 
L 287.429752 233.531707 
L 287.92562 237.970732 
L 288.421488 229.434146 
L 288.917355 227.726829 
L 289.413223 228.153659 
L 289.909091 237.8 
L 290.404959 227.556098 
L 290.900826 236.860976 
L 291.396694 223.458537 
L 291.892562 233.958537 
L 292.38843 230.629268 
L 292.884298 228.239024 
L 293.380165 223.970732 
L 293.876033 224.568293 
L 294.371901 223.714634 
L 295.363636 221.495122 
L 295.859504 225.678049 
L 296.355372 223.031707 
L 296.85124 223.629268 
L 297.347107 224.82439 
L 297.842975 223.8 
L 298.338843 224.909756 
L 298.834711 225.592683 
L 299.330579 221.836585 
L 299.826446 225.592683 
L 300.322314 219.702439 
L 300.818182 224.82439 
L 301.31405 214.580488 
L 301.809917 217.82439 
L 302.305785 222.519512 
L 302.801653 217.397561 
L 303.297521 217.141463 
L 303.793388 216.458537 
L 304.289256 222.263415 
L 304.785124 212.873171 
L 305.280992 214.75122 
L 305.77686 205.787805 
L 306.272727 212.104878 
L 306.768595 209.970732 
L 307.264463 219.873171 
L 308.256198 209.458537 
L 308.752066 209.458537 
L 309.247934 209.714634 
L 309.743802 212.190244 
L 310.239669 211.934146 
L 310.735537 209.543902 
L 311.231405 200.665854 
L 311.727273 200.836585 
L 312.22314 207.239024 
L 312.719008 202.287805 
L 313.214876 202.202439 
L 313.710744 203.312195 
L 314.206612 205.27561 
L 314.702479 202.8 
L 315.198347 203.312195 
L 315.694215 210.739024 
L 316.190083 202.202439 
L 317.181818 207.921951 
L 317.677686 200.836585 
L 318.173554 198.958537 
L 318.669421 201.946341 
L 319.165289 201.519512 
L 319.661157 193.409756 
L 320.157025 198.019512 
L 320.652893 195.287805 
L 321.14876 194.77561 
L 321.644628 199.129268 
L 322.140496 191.958537 
L 322.636364 191.27561 
L 323.132231 189.82439 
L 323.628099 192.129268 
L 324.123967 195.458537 
L 324.619835 190.336585 
L 325.115702 191.531707 
L 325.61157 191.190244 
L 326.107438 190.421951 
L 326.603306 182.739024 
L 327.099174 181.031707 
L 327.595041 192.043902 
L 328.090909 192.897561 
L 328.586777 181.202439 
L 329.082645 182.568293 
L 329.578512 193.068293 
L 330.07438 180.007317 
L 330.570248 177.360976 
L 331.066116 189.82439 
L 331.561983 175.226829 
L 332.057851 170.617073 
L 332.553719 173.860976 
L 333.049587 175.312195 
L 333.545455 167.970732 
L 334.041322 181.970732 
L 334.53719 176.84878 
L 335.033058 165.239024 
L 335.528926 172.239024 
L 336.024793 172.580488 
L 336.520661 168.482927 
L 337.016529 172.239024 
L 337.512397 168.226829 
L 338.008264 165.153659 
L 338.504132 165.495122 
L 339 171.3 
L 340.487603 165.32439 
L 340.983471 158.75122 
L 341.479339 154.653659 
L 341.975207 166.263415 
L 342.471074 159.519512 
L 342.966942 155.934146 
L 343.46281 163.104878 
L 344.950413 148.25122 
L 345.446281 154.397561 
L 345.942149 153.202439 
L 346.438017 157.726829 
L 346.933884 148.165854 
L 347.429752 150.214634 
L 347.92562 150.726829 
L 348.421488 146.885366 
L 348.917355 153.629268 
L 349.413223 144.921951 
L 349.909091 144.495122 
L 350.404959 143.897561 
L 350.900826 138.519512 
L 351.396694 138.007317 
L 351.892562 145.34878 
L 352.38843 133.909756 
L 352.884298 135.27561 
L 353.380165 142.873171 
L 354.371901 129.3 
L 354.867769 129.470732 
L 355.363636 127.165854 
L 355.859504 126.995122 
L 356.355372 133.141463 
L 356.85124 128.873171 
L 357.347107 126.568293 
L 357.842975 125.373171 
L 358.338843 116.580488 
L 358.834711 120.592683 
L 359.330579 110.690244 
L 359.826446 118.543902 
L 360.322314 117.434146 
L 360.818182 115.470732 
L 361.31405 109.836585 
L 361.809917 101.214634 
L 362.305785 99.678049 
L 362.801653 109.495122 
L 363.297521 102.068293 
L 363.793388 97.117073 
L 364.785124 89.519512 
L 365.280992 81.921951 
L 365.77686 87.726829 
L 366.272727 86.873171 
L 366.768595 69.970732 
L 367.264463 82.434146 
L 367.760331 57.080488 
L 368.256198 56.482927 
L 368.752066 58.617073 
L 369.247934 55.8 
L 369.743802 60.921951 
L 370.239669 69.373171 
L 370.735537 66.385366 
L 371.231405 75.604878 
L 372.22314 85.763415 
L 372.719008 84.056098 
L 373.214876 86.360976 
L 373.710744 93.958537 
L 374.702479 97.885366 
L 375.198347 98.995122 
L 375.694215 98.995122 
L 376.68595 107.531707 
L 377.181818 115.129268 
L 377.677686 115.812195 
L 378.173554 117.77561 
L 378.669421 107.104878 
L 379.165289 115.043902 
L 379.661157 126.995122 
L 380.157025 122.556098 
L 380.652893 119.995122 
L 381.14876 123.32439 
L 381.644628 123.32439 
L 382.140496 132.117073 
L 382.636364 124.690244 
L 383.132231 128.27561 
L 383.628099 135.702439 
L 384.123967 134.165854 
L 384.619835 133.312195 
L 385.115702 127.592683 
L 386.107438 140.82439 
L 386.603306 138.434146 
L 387.595041 143.470732 
L 388.090909 142.873171 
L 388.586777 139.970732 
L 389.578512 148.25122 
L 390.07438 144.153659 
L 390.570248 145.946341 
L 391.066116 155.080488 
L 391.561983 149.617073 
L 392.057851 151.32439 
L 392.553719 157.043902 
L 393.049587 152.178049 
L 393.545455 160.031707 
L 394.041322 163.958537 
L 394.53719 166.092683 
L 395.033058 160.202439 
L 395.528926 157.214634 
L 396.024793 159.434146 
L 396.520661 173.007317 
L 397.016529 161.995122 
L 397.512397 171.556098 
L 398.008264 165.665854 
L 398.504132 168.141463 
L 399 171.556098 
L 399.495868 172.665854 
L 399.991736 167.287805 
L 400.487603 179.409756 
L 400.983471 169.421951 
L 401.479339 180.092683 
L 401.975207 170.531707 
L 402.471074 171.897561 
L 402.966942 170.787805 
L 403.46281 177.702439 
L 403.958678 175.568293 
L 404.454545 170.787805 
L 404.950413 184.190244 
L 405.446281 179.068293 
L 405.942149 177.787805 
L 406.438017 179.32439 
L 406.933884 179.665854 
L 407.429752 180.434146 
L 407.92562 180.946341 
L 408.421488 184.446341 
L 408.917355 194.946341 
L 409.413223 183.678049 
L 409.909091 190.336585 
L 410.404959 184.190244 
L 410.900826 187.34878 
L 411.396694 185.726829 
L 411.892562 192.3 
L 412.38843 187.690244 
L 412.884298 191.531707 
L 413.380165 193.409756 
L 413.876033 198.702439 
L 414.371901 192.641463 
L 414.867769 190.678049 
L 415.363636 187.77561 
L 415.859504 196.568293 
L 416.355372 195.373171 
L 416.85124 188.629268 
L 417.347107 197.25122 
L 417.842975 195.287805 
L 418.338843 197.507317 
L 418.834711 202.458537 
L 419.330579 193.665854 
L 419.826446 198.019512 
L 420.322314 200.068293 
L 420.818182 203.312195 
L 421.31405 202.031707 
L 421.809917 203.397561 
L 422.305785 203.653659 
L 422.801653 202.287805 
L 423.297521 204.165854 
L 423.793388 202.287805 
L 424.785124 208.604878 
L 425.280992 199.556098 
L 425.77686 201.178049 
L 426.272727 207.409756 
L 426.768595 210.653659 
L 427.264463 210.653659 
L 427.760331 208.604878 
L 428.256198 208.860976 
L 428.752066 209.714634 
L 429.247934 219.104878 
L 430.239669 211.165854 
L 430.735537 213.812195 
L 431.231405 219.446341 
L 431.727273 215.690244 
L 432.22314 215.604878 
L 432.719008 213.470732 
L 433.214876 217.653659 
L 433.710744 216.8 
L 434.206612 217.312195 
L 434.702479 219.531707 
L 435.198347 217.397561 
L 435.694215 225.421951 
L 436.190083 221.495122 
L 436.68595 224.312195 
L 437.181818 224.653659 
L 437.677686 223.458537 
L 438.173554 222.690244 
L 438.669421 219.190244 
L 439.165289 221.239024 
L 439.661157 220.470732 
L 440.157025 220.812195 
L 440.652893 218.507317 
L 441.14876 217.397561 
L 441.644628 222.263415 
L 442.140496 224.739024 
L 442.636364 230.458537 
L 443.132231 225.592683 
L 443.628099 225.84878 
L 444.123967 232.763415 
L 444.619835 226.702439 
L 445.115702 223.714634 
L 445.61157 224.568293 
L 446.107438 231.82439 
L 446.603306 226.617073 
L 447.099174 231.141463 
L 447.595041 231.568293 
L 448.090909 229.178049 
L 448.586777 230.885366 
L 449.082645 228.836585 
L 449.578512 232.421951 
L 450.07438 227.3 
L 450.570248 231.056098 
L 451.066116 241.214634 
L 451.561983 233.104878 
L 452.057851 234.812195 
L 452.553719 234.470732 
L 453.049587 245.141463 
L 453.545455 238.141463 
L 454.041322 233.27561 
L 454.53719 237.629268 
L 455.033058 235.409756 
L 455.528926 239.678049 
L 456.024793 241.043902 
L 456.520661 239.165854 
L 457.016529 235.409756 
L 457.512397 240.873171 
L 458.008264 238.141463 
L 458.504132 242.32439 
L 459 240.531707 
L 459.495868 239.165854 
L 459.991736 240.958537 
L 460.487603 247.019512 
L 460.983471 242.665854 
L 461.479339 239.507317 
L 461.975207 239.421951 
L 462.471074 241.3 
L 462.966942 244.287805 
L 463.46281 244.543902 
L 463.958678 240.873171 
L 464.454545 241.641463 
L 464.950413 246.507317 
L 465.446281 246.84878 
L 465.942149 252.226829 
L 466.438017 244.373171 
L 466.933884 252.312195 
L 467.92562 244.031707 
L 468.421488 248.043902 
L 468.917355 242.836585 
L 469.413223 248.214634 
L 470.404959 253.421951 
L 470.900826 247.787805 
L 471.396694 250.77561 
L 471.892562 249.75122 
L 472.38843 251.629268 
L 472.884298 257.519512 
L 473.380165 250.519512 
L 474.371901 256.32439 
L 474.867769 253.165854 
L 475.363636 246.592683 
L 475.859504 257.946341 
L 476.355372 257.946341 
L 476.85124 252.568293 
L 477.347107 251.629268 
L 477.842975 253.84878 
L 478.338843 261.617073 
L 478.834711 257.178049 
L 479.330579 257.77561 
L 479.826446 257.092683 
L 480.322314 254.617073 
L 480.818182 255.385366 
L 481.31405 262.470732 
L 481.809917 257.007317 
L 482.305785 255.982927 
L 482.801653 252.397561 
L 483.297521 262.385366 
L 483.793388 255.726829 
L 484.289256 261.958537 
L 484.785124 262.726829 
L 485.280992 264.263415 
L 485.77686 258.117073 
L 486.272727 260.678049 
L 486.768595 260.336585 
L 487.264463 257.263415 
L 487.760331 264.434146 
L 488.256198 263.32439 
L 488.752066 261.873171 
L 489.247934 259.482927 
L 489.743802 259.739024 
L 490.239669 258.629268 
L 490.735537 268.446341 
L 491.231405 266.482927 
L 491.727273 260.592683 
L 492.22314 261.190244 
L 493.214876 265.885366 
L 493.710744 258.117073 
L 494.206612 260.934146 
L 494.702479 267.507317 
L 495.694215 262.214634 
L 496.190083 264.34878 
L 496.68595 263.239024 
L 497.181818 266.226829 
L 498.173554 262.641463 
L 498.669421 265.373171 
L 499.165289 261.702439 
L 499.661157 270.239024 
L 500.157025 264.604878 
L 500.652893 263.836585 
L 501.14876 265.373171 
L 501.644628 270.75122 
L 502.140496 268.019512 
L 502.636364 270.665854 
L 503.132231 266.568293 
L 503.628099 271.092683 
L 504.123967 269.129268 
L 504.619835 274.165854 
L 505.115702 268.360976 
L 505.61157 271.34878 
L 506.107438 267.592683 
L 506.603306 273.995122 
L 507.099174 272.031707 
L 507.595041 271.860976 
L 508.090909 275.27561 
L 508.586777 270.239024 
L 509.082645 273.82439 
L 509.578512 270.239024 
L 510.07438 269.726829 
L 510.570248 271.092683 
L 511.066116 273.909756 
L 511.561983 265.629268 
L 512.057851 274.421951 
L 512.553719 271.77561 
L 513.049587 279.714634 
L 513.545455 271.860976 
L 514.041322 269.043902 
L 514.53719 274.678049 
L 515.033058 271.77561 
L 515.528926 274.934146 
L 516.024793 267.763415 
L 516.520661 277.409756 
L 517.016529 275.617073 
L 517.512397 275.531707 
L 518.008264 270.75122 
L 518.504132 277.836585 
L 519 274.763415 
L 519.495868 277.580488 
L 519.991736 276.812195 
L 520.487603 276.641463 
L 520.983471 272.117073 
L 521.479339 270.836585 
L 521.975207 272.373171 
L 522.471074 276.3 
L 522.966942 276.470732 
L 523.46281 276.129268 
L 523.958678 275.104878 
L 524.454545 274.592683 
L 524.950413 280.056098 
L 525.446281 278.604878 
L 525.942149 273.141463 
L 526.438017 276.897561 
L 526.933884 276.470732 
L 527.429752 272.373171 
L 527.92562 280.653659 
L 528.421488 280.82439 
L 528.917355 277.153659 
L 529.413223 279.714634 
L 529.909091 275.617073 
L 530.404959 275.446341 
L 530.900826 282.617073 
L 531.396694 280.909756 
L 531.892562 280.482927 
L 532.38843 280.226829 
L 532.884298 281.84878 
L 533.380165 282.958537 
L 533.876033 282.019512 
L 534.371901 286.970732 
L 534.867769 279.970732 
L 535.363636 283.812195 
L 535.859504 283.556098 
L 536.355372 284.409756 
L 536.85124 278.34878 
L 537.347107 279.970732 
L 537.842975 281.080488 
L 538.338843 288.678049 
L 538.834711 282.787805 
L 539.330579 284.32439 
L 539.826446 283.3 
L 540.322314 285.178049 
L 540.818182 281.84878 
L 541.31405 286.543902 
L 541.809917 286.970732 
L 542.305785 283.470732 
L 542.801653 281.763415 
L 543.297521 282.873171 
L 543.793388 285.34878 
L 544.289256 286.714634 
L 544.785124 281.678049 
L 545.280992 290.043902 
L 545.77686 280.909756 
L 546.272727 287.568293 
L 546.768595 284.409756 
L 547.264463 285.604878 
L 547.760331 284.32439 
L 548.256198 282.27561 
L 548.752066 287.226829 
L 549.247934 281.763415 
L 549.743802 287.653659 
L 550.239669 285.604878 
L 550.735537 286.117073 
L 551.231405 286.373171 
L 551.727273 280.739024 
L 552.22314 287.909756 
L 552.719008 285.946341 
L 553.214876 286.714634 
L 553.710744 285.092683 
L 554.206612 282.958537 
L 554.702479 288.592683 
L 555.198347 285.690244 
L 555.694215 292.263415 
L 556.190083 292.007317 
L 556.68595 289.958537 
L 557.181818 287.141463 
L 557.677686 288.592683 
L 558.173554 283.982927 
L 558.669421 284.32439 
L 559.165289 290.897561 
L 559.661157 291.32439 
L 560.157025 290.641463 
L 560.652893 292.690244 
L 561.14876 292.604878 
L 561.644628 289.190244 
L 562.140496 289.019512 
L 562.636364 287.482927 
L 563.132231 288.080488 
L 563.628099 289.617073 
L 564.123967 290.470732 
L 564.619835 288.763415 
L 565.115702 286.629268 
L 565.61157 295.507317 
L 566.107438 292.77561 
L 566.603306 291.921951 
L 567.099174 293.885366 
L 567.595041 291.665854 
L 568.090909 288.763415 
L 568.586777 284.665854 
L 569.082645 294.995122 
L 569.578512 290.897561 
L 570.07438 289.617073 
L 571.066116 294.568293 
L 571.561983 291.921951 
L 572.057851 288.421951 
L 572.553719 291.580488 
L 573.545455 295.336585 
L 574.041322 291.921951 
L 574.53719 292.604878 
L 575.033058 289.617073 
L 575.528926 289.531707 
L 576.024793 294.141463 
L 576.520661 295.165854 
L 577.016529 296.873171 
L 577.512397 286.970732 
L 578.008264 290.641463 
L 578.504132 292.604878 
L 579 293.885366 
L 579.495868 295.507317 
L 579.991736 292.860976 
L 580.487603 295.507317 
L 580.983471 297.214634 
L 581.975207 290.982927 
L 582.471074 297.897561 
L 582.966942 293.629268 
L 583.46281 291.495122 
L 583.958678 298.921951 
L 584.454545 295.336585 
L 584.950413 296.360976 
L 585.446281 297.726829 
L 585.942149 296.27561 
L 586.438017 297.641463 
L 586.933884 298.068293 
L 587.429752 291.153659 
L 587.92562 295.336585 
L 588.421488 293.373171 
L 588.917355 295.934146 
L 589.413223 293.287805 
L 589.909091 296.190244 
L 590.404959 301.226829 
L 590.900826 296.958537 
L 591.396694 295.678049 
L 591.892562 296.446341 
L 592.38843 300.031707 
L 592.884298 299.092683 
L 593.380165 295.763415 
L 593.876033 296.958537 
L 594.371901 294.739024 
L 595.363636 301.568293 
L 595.859504 296.617073 
L 596.355372 302.336585 
L 596.85124 298.153659 
L 597.347107 301.141463 
L 597.842975 301.056098 
L 598.338843 301.653659 
L 598.834711 298.836585 
L 599.826446 297.3 
L 600.322314 300.970732 
L 600.818182 295.25122 
L 601.31405 296.446341 
L 601.809917 299.263415 
L 602.305785 300.885366 
L 602.801653 300.202439 
L 603.297521 296.958537 
L 603.793388 300.202439 
L 604.289256 298.921951 
L 604.785124 298.068293 
L 605.280992 304.043902 
L 605.77686 294.482927 
L 606.768595 304.043902 
L 607.264463 302.592683 
L 607.760331 302.507317 
L 608.752066 298.32439 
L 609.247934 300.714634 
L 609.743802 297.470732 
L 610.735537 303.531707 
L 611.231405 303.617073 
L 611.727273 304.812195 
L 612.22314 303.446341 
L 612.719008 296.958537 
L 613.214876 303.019512 
L 613.710744 303.104878 
L 614.206612 307.714634 
L 615.694215 298.068293 
L 616.190083 303.27561 
L 616.68595 300.458537 
L 617.181818 305.068293 
L 617.677686 305.068293 
L 618.173554 302.336585 
L 618.669421 294.739024 
L 619.165289 302.592683 
L 619.661157 302.507317 
L 620.157025 304.641463 
L 620.652893 300.970732 
L 621.14876 304.641463 
L 621.644628 300.629268 
L 622.140496 302.507317 
L 622.636364 303.787805 
L 622.636364 303.787805 
" clip-path="url(#p0e926142d0)" style="fill: none; stroke: #ffa500; stroke-width: 1.5; stroke-linecap: square"/>
   </g>
   <g id="patch_3">
    <path d="M 90 320.4 
L 90 43.2 
" style="fill: none; stroke: #000000; stroke-width: 0.8; stroke-linejoin: miter; stroke-linecap: square"/>
   </g>
   <g id="patch_4">
    <path d="M 648 320.4 
L 648 43.2 
" style="fill: none; stroke: #000000; stroke-width: 0.8; stroke-linejoin: miter; stroke-linecap: square"/>
   </g>
   <g id="patch_5">
    <path d="M 90 320.4 
L 648 320.4 
" style="fill: none; stroke: #000000; stroke-width: 0.8; stroke-linejoin: miter; stroke-linecap: square"/>
   </g>
   <g id="patch_6">
    <path d="M 90 43.2 
L 648 43.2 
" style="fill: none; stroke: #000000; stroke-width: 0.8; stroke-linejoin: miter; stroke-linecap: square"/>
   </g>
   <g id="text_15">
    <!-- 1D Density Profile (Y-Axis) -->
    <g transform="translate(291.26625 37.2) scale(0.12 -0.12)">
     <defs>
      <path id="DejaVuSans-44" d="M 1259 4147 
L 1259 519 
L 2022 519 
Q 2988 519 3436 956 
Q 3884 1394 3884 2338 
Q 3884 3275 3436 3711 
Q 2988 4147 2022 4147 
L 1259 4147 
z
M 628 4666 
L 1925 4666 
Q 3281 4666 3915 4102 
Q 4550 3538 4550 2338 
Q 4550 1131 3912 565 
Q 3275 0 1925 0 
L 628 0 
L 628 4666 
z
" transform="scale(0.015625)"/>
      <path id="DejaVuSans-79" d="M 2059 -325 
Q 1816 -950 1584 -1140 
Q 1353 -1331 966 -1331 
L 506 -1331 
L 506 -850 
L 844 -850 
Q 1081 -850 1212 -737 
Q 1344 -625 1503 -206 
L 1606 56 
L 191 3500 
L 800 3500 
L 1894 763 
L 2988 3500 
L 3597 3500 
L 2059 -325 
z
" transform="scale(0.015625)"/>
      <path id="DejaVuSans-72" d="M 2631 2963 
Q 2534 3019 2420 3045 
Q 2306 3072 2169 3072 
Q 1681 3072 1420 2755 
Q 1159 2438 1159 1844 
L 1159 0 
L 581 0 
L 581 3500 
L 1159 3500 
L 1159 2956 
Q 1341 3275 1631 3429 
Q 1922 3584 2338 3584 
Q 2397 3584 2469 3576 
Q 2541 3569 2628 3553 
L 2631 2963 
z
" transform="scale(0.015625)"/>
      <path id="DejaVuSans-66" d="M 2375 4863 
L 2375 4384 
L 1825 4384 
Q 1516 4384 1395 4259 
Q 1275 4134 1275 3809 
L 1275 3500 
L 2222 3500 
L 2222 3053 
L 1275 3053 
L 1275 0 
L 697 0 
L 697 3053 
L 147 3053 
L 147 3500 
L 697 3500 
L 697 3744 
Q 697 4328 969 4595 
Q 1241 4863 1831 4863 
L 2375 4863 
z
" transform="scale(0.015625)"/>
      <path id="DejaVuSans-2d" d="M 313 2009 
L 1997 2009 
L 1997 1497 
L 313 1497 
L 313 2009 
z
" transform="scale(0.015625)"/>
      <path id="DejaVuSans-41" d="M 2188 4044 
L 1331 1722 
L 3047 1722 
L 2188 4044 
z
M 1831 4666 
L 2547 4666 
L 4325 0 
L 3669 0 
L 3244 1197 
L 1141 1197 
L 716 0 
L 50 0 
L 1831 4666 
z
" transform="scale(0.015625)"/>
     </defs>
     <use xlink:href="#DejaVuSans-31"/>
     <use xlink:href="#DejaVuSans-44" x="63.623047"/>
     <use xlink:href="#DejaVuSans-20" x="140.625"/>
     <use xlink:href="#DejaVuSans-44" x="172.412109"/>
     <use xlink:href="#DejaVuSans-65" x="249.414062"/>
     <use xlink:href="#DejaVuSans-6e" x="310.9375"/>
     <use xlink:href="#DejaVuSans-73" x="374.316406"/>
     <use xlink:href="#DejaVuSans-69" x="426.416016"/>
     <use xlink:href="#DejaVuSans-74" x="454.199219"/>
     <use xlink:href="#DejaVuSans-79" x="493.408203"/>
     <use xlink:href="#DejaVuSans-20" x="552.587891"/>
     <use xlink:href="#DejaVuSans-50" x="584.375"/>
     <use xlink:href="#DejaVuSans-72" x="642.927734"/>
     <use xlink:href="#DejaVuSans-6f" x="681.791016"/>
     <use xlink:href="#DejaVuSans-66" x="742.972656"/>
     <use xlink:href="#DejaVuSans-69" x="778.177734"/>
     <use xlink:href="#DejaVuSans-6c" x="805.960938"/>
     <use xlink:href="#DejaVuSans-65" x="833.744141"/>
     <use xlink:href="#DejaVuSans-20" x="895.267578"/>
     <use xlink:href="#DejaVuSans-28" x="927.054688"/>
     <use xlink:href="#DejaVuSans-59" x="966.068359"/>
     <use xlink:href="#DejaVuSans-2d" x="1015.277344"/>
     <use xlink:href="#DejaVuSans-41" x="1049.111328"/>
     <use xlink:href="#DejaVuSans-78" x="1117.519531"/>
     <use xlink:href="#DejaVuSans-69" x="1176.699219"/>
     <use xlink:href="#DejaVuSans-73" x="1204.482422"/>
     <use xlink:href="#DejaVuSans-29" x="1256.582031"/>
    </g>
   </g>
  </g>
 </g>
 <defs>
  <clipPath id="p0e926142d0">
   <rect x="90" y="43.2" width="558" height="277.2"/>
  </clipPath>
 </defs>
</svg>
